<?xml version="1.0" encoding="UTF-8"?>
<svg width="30.4507631px" height="30px" viewBox="0 0 30.4507631 30" version="1.1" xmlns="http://www.w3.org/2000/svg" xmlns:xlink="http://www.w3.org/1999/xlink">
    <!-- Generator: Sketch 45.1 (43504) - http://www.bohemiancoding.com/sketch -->
    <title>icons/gwent</title>
    <desc>Created with Sketch.</desc>
    <defs></defs>
    <g id="symbols" stroke="none" stroke-width="1" fill="none" fill-rule="evenodd">
        <g id="icons/gwent" fill="#EF3418">
            <path d="M5.54382116,23.3746063 L15.3217283,23.3746063 L14.1638334,24.8784394 L4.12861638,24.8784394 L5.54382116,23.3746063 Z M4,19.6149483 L4,9.8401582 L9.27485416,14.9781294 L8.37426931,15.8553654 L8.37426931,17.7352822 L9.14619918,17.7352822 L10.046784,21.1189067 L5.54385976,21.1189067 L4,19.6149483 Z M20.7250959,14.978142 L25.9999501,9.84004541 L25.9999501,19.6149608 L24.456219,21.1189192 L19.9532947,21.1189192 L20.8538795,17.7352947 L21.6256807,17.7352947 L21.6256807,15.855378 L20.7250959,14.978142 Z M14.8069797,6.08045004 L15.7075645,12.3464214 L14.9356347,11.7198243 L10.1754004,16.1060043 L10.1754004,10.5919494 L14.8069797,6.08045004 Z M10.304094,21.118819 L10.304094,16.3566807 L14.8070183,20.6175413 L14.9356733,21.118819 L10.304094,21.118819 Z M19.6959075,21.118819 L15.3216382,21.118819 L15.1929832,20.6175413 L19.6959075,16.2313613 L19.6959075,21.118819 Z M15.1930218,6.08045004 L19.6959461,10.46663 L19.6959461,15.9806848 L16.093478,12.5970603 L15.1930218,6.08045004 Z M14.7426908,19.9282844 L11.0116964,16.1687016 L15.0000008,12.2837993 L15.0000008,13.0357159 L11.9122812,16.1687016 L14.6140358,18.8004096 L14.7426908,19.9282844 Z M12.4269012,16.1687016 L15.0000008,13.662313 L15.0000008,16.7952987 L14.4853808,18.1738124 L12.4269012,16.1687016 Z M16.1578956,13.2863547 L19.1169601,16.1687016 L15.1286557,20.0536039 L15.0000008,19.3016873 L18.2163752,16.1687016 L16.0292406,14.0382713 L16.1578956,13.2863547 Z M17.5731003,16.1687016 L15.0000008,18.8004096 L14.8713458,18.048493 L15.3859657,17.171257 L15.7719306,14.4142296 L17.5731003,16.1687016 Z M4.25730996,22.873291 L5.54385976,21.4947773 L14.9356733,21.4947773 L15.1929832,22.873291 L4.25730996,22.873291 Z M15.5789482,21.4947773 L24.3274868,21.4947773 L25.7426916,22.873291 L16.0935681,22.873291 L15.5789482,21.4947773 Z M15.7075903,23.3746063 L24.3274739,23.3746063 L25.7426787,24.8784394 L15.1929704,24.8784394 L15.7075903,23.3746063 Z" id="Fill-14"></path>
        </g>
    </g>
</svg>