<?xml version="1.0" encoding="UTF-8"?>
<svg width="30.4507631px" height="30px" viewBox="0 0 30.4507631 30" version="1.1" xmlns="http://www.w3.org/2000/svg" xmlns:xlink="http://www.w3.org/1999/xlink">
    <!-- Generator: Sketch 45.1 (43504) - http://www.bohemiancoding.com/sketch -->
    <title>icons/hearthstone</title>
    <desc>Created with Sketch.</desc>
    <defs></defs>
    <g id="symbols" stroke="none" stroke-width="1" fill="none" fill-rule="evenodd">
        <g id="icons/hearthstone" fill="#EF3418">
            <path d="M17.948899,16.3407966 C17.5634447,17.2680326 17.0330397,17.9582011 16.1795549,18.3160663 C15.0320397,18.7973584 13.8009159,18.9093921 12.5838007,18.4752798 C12.4624431,18.4318978 12.3826685,18.2741449 12.2835769,18.1694146 C12.3727888,18.0938978 12.4500566,17.9804034 12.5528346,17.9494371 C13.20386,17.7538528 13.7585956,17.3542124 14.4143397,17.1523472 C16.4448312,16.5270326 17.0365786,15.0491225 16.2754024,13.4061562 C15.98786,12.7853697 15.0927922,12.6391562 14.260099,12.9923472 C13.6216075,13.2630101 13.2327617,14.0523584 13.4501142,14.6712461 C13.5207464,14.8720888 13.6123176,15.1214258 13.8795108,15.1041899 C14.1635142,15.0857854 14.2089312,14.8881562 14.1378566,14.6300551 C14.0728278,14.393718 14.2894431,14.3424483 14.4436837,14.3088528 C14.7683854,14.2381562 15.0820278,14.2792011 15.321499,14.5422685 C15.7125566,14.9719989 15.6669922,15.7257067 15.2311075,16.1111787 C14.52626,16.7347404 13.5753058,16.7085944 12.9093871,16.0472011 C11.9994261,15.1436281 11.8142193,14.7777292 11.8016854,13.7954258 C11.5256447,13.0063697 12.3500803,12.7633135 12.7302261,12.3051 C13.6913549,11.1463472 14.9220363,11.2513697 16.1858956,11.7411337 C18.2623939,12.5458191 18.8249447,14.2339202 17.948899,16.3407966 M15.0464905,9.39865056 C11.8848515,9.39865056 9.32159559,11.9375944 9.32159559,15.0695719 C9.32159559,18.2015494 11.8848515,20.7404933 15.0464905,20.7404933 C18.2084244,20.7404933 20.7715329,18.2015494 20.7715329,15.0695719 C20.7715329,11.9375944 18.2084244,9.39865056 15.0464905,9.39865056 M15.0465495,21.8616921 C11.2655885,21.8616921 8.18976983,18.8147258 8.18976983,15.0695573 C8.18976983,11.3243888 11.2655885,8.27742247 15.0465495,8.27742247 C18.8275105,8.27742247 21.9033292,11.3243888 21.9033292,15.0695573 C21.9033292,18.8147258 18.8275105,21.8616921 15.0465495,21.8616921 M23.6585173,14.6012652 C23.6604342,14.6361753 23.6630885,14.6709393 23.6645631,14.7058494 C23.6697241,14.8265011 23.6728207,14.9477371 23.6728207,15.0695573 C23.6728207,15.1865573 23.6698715,15.302973 23.6653003,15.4188045 C23.6638258,15.4535685 23.661319,15.4880404 23.659402,15.5226584 C23.6551258,15.6044562 23.6502597,15.6859618 23.6436241,15.7671753 C23.64038,15.8057371 23.6363986,15.8440067 23.6327122,15.8824225 C23.6253393,15.9607146 23.6169342,16.0385685 23.6074969,16.1161303 C23.6027783,16.1527933 23.5979122,16.1893101 23.5928986,16.225827 C23.5818393,16.3071865 23.5694529,16.3881079 23.5558868,16.4687371 C23.5508732,16.4997034 23.5458597,16.5305236 23.5402563,16.5613438 C23.5238885,16.652636 23.5060461,16.7431978 23.4868766,16.8336135 C23.4827478,16.8528944 23.4790614,16.8723213 23.4746376,16.8917483 C23.2475529,17.9247371 22.8323122,18.8883438 22.2656325,19.7450292 L23.1282597,23.0219056 L19.8025003,22.1977933 C19.0240715,22.7084449 18.1571681,23.0971303 17.2296597,23.3372652 C17.2125546,23.3416472 17.1954495,23.3454449 17.1786393,23.3496809 C17.0861834,23.3730517 16.9931376,23.3951079 16.899502,23.4154112 C16.8685359,23.4222764 16.8375698,23.4282652 16.8064563,23.4346921 C16.7260919,23.4511978 16.64558,23.466827 16.5644783,23.4811416 C16.5268766,23.4877146 16.4892749,23.4939955 16.4515258,23.5001303 C16.37588,23.5124 16.2997919,23.5236472 16.2234088,23.534164 C16.1827105,23.5395685 16.1421597,23.544973 16.1011664,23.5500854 C16.0261105,23.5591416 15.9504647,23.5668831 15.8745241,23.5740404 C15.8333834,23.5779843 15.7923902,23.5822202 15.7509546,23.5855798 C15.6705902,23.5920067 15.5899308,23.5966809 15.5089766,23.6009169 C15.4725546,23.6028157 15.43628,23.605591 15.3997105,23.6070517 C15.2824817,23.6117258 15.164958,23.6145011 15.0465495,23.6145011 C14.9240122,23.6145011 14.8022122,23.6114337 14.681002,23.6063213 C14.6453173,23.6048607 14.6100749,23.6023775 14.5745376,23.6004787 C14.4872427,23.5958045 14.4000953,23.5901079 14.3135376,23.5829506 C14.2757885,23.5797371 14.2384817,23.5760854 14.2010275,23.5724337 C14.1128478,23.5639618 14.025258,23.5540292 13.9379631,23.5430742 C13.9068495,23.5389843 13.8755885,23.5351865 13.8443275,23.5308045 C13.7400749,23.5163438 13.6362647,23.4999843 13.5330444,23.4818719 C13.5205105,23.4796809 13.5079766,23.477782 13.4955902,23.475591 C13.1239969,23.4085461 12.7609563,23.3175461 12.4076478,23.2050742 C12.4066156,23.204636 12.4055834,23.2043438 12.4044037,23.2040517 C11.6492732,22.9631865 10.9391173,22.6231416 10.2905986,22.1977933 L6.96483932,23.0219056 L7.82746644,19.7448831 C7.26078678,18.8883438 6.84569356,17.9250292 6.61846136,16.8920404 C6.61403763,16.8723213 6.61020373,16.8524562 6.60607492,16.832591 C6.58705288,16.7429056 6.56921051,16.652782 6.55299017,16.5620742 C6.54738678,16.5306697 6.54222576,16.4992652 6.53691729,16.4677146 C6.5236461,16.3876697 6.51140712,16.3071865 6.5003478,16.2262652 C6.49518678,16.1894562 6.49032068,16.1526472 6.48560203,16.1156921 C6.47616475,16.0384225 6.46790712,15.9610067 6.46038678,15.8831528 C6.45670034,15.8442989 6.45271898,15.8057371 6.44947492,15.7667371 C6.44283932,15.6861079 6.43812068,15.6050404 6.43384441,15.5236809 C6.43192746,15.4886247 6.42927322,15.4537146 6.42779864,15.4186584 C6.42322746,15.302827 6.42027831,15.1865573 6.42027831,15.0695573 C6.42027831,14.9478831 6.42337492,14.8266472 6.42853593,14.7061416 C6.43001051,14.6707933 6.43266475,14.6357371 6.43472915,14.6005348 C6.43930034,14.5137708 6.44490373,14.4272989 6.45227661,14.3412652 C6.45552068,14.3038719 6.45935458,14.2664787 6.46304102,14.2292315 C6.47159356,14.1426135 6.48132576,14.0562876 6.49253254,13.9704 C6.49666136,13.9384112 6.50079017,13.9065685 6.50536136,13.8747258 C6.51936983,13.7756921 6.5351478,13.6772427 6.5525478,13.5792315 C6.55564441,13.5622876 6.55829864,13.5450517 6.56139525,13.5281079 C6.65163932,13.0376135 6.7846461,12.562164 6.95554949,12.104827 L6.95569695,12.104827 C7.19325119,11.4689955 7.50394441,10.8680742 7.87951898,10.3137483 L7.07204102,7.11720899 L10.2826359,7.94628764 C10.8319156,7.58535506 11.42558,7.28591685 12.0531597,7.05556854 L12.0533071,7.05542247 C12.1696512,7.01277079 12.2870275,6.97245618 12.4055834,6.93477079 C12.4060258,6.93462472 12.4064681,6.93433258 12.4069105,6.93418652 C12.7600715,6.82171461 13.1231122,6.73071461 13.4947054,6.66381573 C13.5081241,6.66133258 13.5216902,6.65928764 13.5352563,6.65695056 C13.6372969,6.63898427 13.7400749,6.62277079 13.8432953,6.60845618 C13.8749986,6.60407416 13.906702,6.60013034 13.9384054,6.59604045 C14.025258,6.58508539 14.1125529,6.57529888 14.2002902,6.56682697 C14.2378919,6.56317528 14.2753461,6.55937753 14.3129478,6.55631011 C14.3998003,6.54900674 14.4869478,6.54345618 14.5745376,6.53878202 C14.6099275,6.53673708 14.6451698,6.53425393 14.6808546,6.53279326 C14.8020647,6.5276809 14.9238647,6.52461348 15.0465495,6.52461348 C15.164958,6.52461348 15.2826292,6.52738876 15.399858,6.53206292 C15.4365749,6.53366966 15.4728495,6.53629888 15.509419,6.53819775 C15.5903732,6.54243371 15.6710325,6.54710787 15.7512495,6.55353483 C15.79298,6.55689438 15.8342681,6.56113034 15.8755563,6.56522022 C15.9510546,6.57237753 16.0264054,6.57997303 16.1011664,6.58902921 C16.1427495,6.59414157 16.1841851,6.59969213 16.2254732,6.60538876 C16.3008241,6.61561348 16.37588,6.62671461 16.4504936,6.6388382 C16.4894224,6.6451191 16.5283512,6.65154607 16.5671325,6.65841124 C16.6461698,6.67243371 16.7247647,6.68762472 16.8030647,6.7038382 C16.8362427,6.7105573 16.8694207,6.71713034 16.9024512,6.72428764 C16.9916631,6.74371461 17.0802851,6.76489438 17.1686122,6.78695056 C17.1899936,6.79235506 17.2116698,6.79717528 17.2329037,6.80272584 C18.1623292,7.04373708 19.0308546,7.43373708 19.8104631,7.94628764 L23.021058,7.11720899 L22.21358,10.3137483 C22.8594444,11.2668382 23.3159732,12.3560629 23.5317037,13.5284 C23.5348003,13.5450517 23.5374546,13.5618494 23.5404037,13.5785011 C23.5579512,13.6768045 23.5737292,13.7756921 23.5878851,13.875018 C23.5923088,13.9065685 23.5962902,13.9382652 23.6005664,13.9699618 C23.6117732,14.0561416 23.6215054,14.1427596 23.6302054,14.2296697 C23.6337444,14.2667708 23.6375783,14.3037258 23.6408224,14.340973 C23.6481953,14.4274449 23.6537986,14.514209 23.6585173,14.6012652 Z M12.7164683,24.2041169 C13.4727785,24.3931281 14.2543039,24.4908472 15.0465937,24.4908472 C15.7886005,24.4908472 16.52117,24.4052517 17.2323581,24.2393191 L14.9595937,27.9931056 L12.7164683,24.2041169 Z M17.2322107,5.89976629 C16.52117,5.73383371 15.7886005,5.6482382 15.0465937,5.6482382 C14.2541564,5.6482382 13.4727785,5.7459573 12.7166158,5.93482247 L14.9595937,2.14597978 L17.2322107,5.89976629 Z M2.00001475,14.9833337 L5.82418085,12.7619404 C5.63381305,13.510536 5.53560627,14.2844011 5.53560627,15.0695135 C5.53560627,15.8042326 5.62186898,16.5300416 5.78952831,17.2348169 L2.00001475,14.9833337 Z M28.093099,14.9833337 L24.3035854,17.2348169 C24.4712447,16.5300416 24.5575075,15.8042326 24.5575075,15.0695135 C24.5575075,14.2844011 24.4593007,13.510536 24.2689329,12.7619404 L28.093099,14.9833337 Z" id="Fill-13"></path>
        </g>
    </g>
</svg>