<?xml version="1.0" encoding="UTF-8"?>
<svg width="30px" height="30px" viewBox="0 0 30 30" version="1.1" xmlns="http://www.w3.org/2000/svg" xmlns:xlink="http://www.w3.org/1999/xlink">
    <!-- Generator: Sketch 45.1 (43504) - http://www.bohemiancoding.com/sketch -->
    <title>icons/monsters</title>
    <desc>Created with Sketch.</desc>
    <defs></defs>
    <g id="symbols" stroke="none" stroke-width="1" fill="none" fill-rule="evenodd">
        <g id="icons/monsters" fill="#D0021B">
            <path d="M20.1112,6.38064179 L22.1112,3.46997015 L21.0000889,15.5595224 L22.7778667,15.1119851 L19.2223111,24.2910896 L18.1112,25.6341493 L18.1112,20.0373582 L19.0000889,18.9179552 L19.4443111,16.2313881 L18.3334222,16.6791493 L20.1112,6.38064179 Z M15.1112,-2.23880597e-05 L15.6665333,10.1865448 L16.1112,13.9925149 L16.3334222,16.2313209 L15.4443111,17.3507239 L15.4443111,18.9178881 L16.0000889,19.9253507 L15.7778667,23.2835597 L14.6665333,29.9999776 L13.5556444,26.6417687 L13.1112,20.5969925 L14.0000889,19.7014701 L14.0000889,17.2387836 L12.8887556,15.8955 L13.7778667,2.23878358 L15.1112,-2.23880597e-05 Z M7.8888,10.4104925 L7.44435556,3.91795522 L8.99991111,6.38064179 L11.2221333,16.4552687 L9.66657778,18.470194 L10.7779111,19.5893731 L11.4443556,25.6341493 L10.1112444,24.2910896 L8.99991111,20.0373582 L6.99991111,15.5595224 L8.55568889,16.4552687 L7.66657778,13.9925821 L7.44435556,11.5296716 L7.8888,10.4104925 Z" id="Fill-3"></path>
        </g>
    </g>
</svg>