<?xml version="1.0" encoding="UTF-8"?>
<svg width="30px" height="30px" viewBox="0 0 30 30" version="1.1" xmlns="http://www.w3.org/2000/svg" xmlns:xlink="http://www.w3.org/1999/xlink">
    <!-- Generator: Sketch 45.2 (43514) - http://www.bohemiancoding.com/sketch -->
    <title>icons/scoiatael</title>
    <desc>Created with Sketch.</desc>
    <defs></defs>
    <g id="symbols" stroke="none" stroke-width="1" fill="none" fill-rule="evenodd">
        <g id="icons/scoiatael" fill="#315B01">
            <path d="M14.5903202,0 L17.1288156,6.46162462 L15.2826371,5.99984923 L15.2826371,7.15394154 L15.0518648,7.61525538 L15.0518648,14.3124985 L15.0518648,17.3247695 L15.0518648,23.7695477 L16.8980433,24.9234092 L16.8980433,30.0004 L14.5903202,28.6155354 L12.2823663,30.0004 L12.2823663,24.9234092 L14.1285448,23.7695477 L14.1285448,17.3247695 L14.1285448,14.3124985 L14.1285448,7.61525538 L13.8977725,7.15394154 L13.8977725,5.99984923 L12.051594,6.46162462 L14.5903202,0 Z M19.1375962,7.85957402 L19.7839894,6.90371513 L17.9961964,6.25178336 L23.7191188,2.32150018 L22.2015601,9.09605205 L20.9309278,7.67957162 L20.2845346,8.63519975 L19.8347593,8.88835697 L15.7440894,14.9364376 L15.7440894,13.2887233 L19.0702107,8.37119623 L19.1375962,7.85957402 Z M15.7440663,18.3486139 L15.7440663,16.7006688 L19.1604196,21.7518131 L21.3361409,21.6735813 L24.1804096,25.8784835 L24.1804096,25.8787143 L21.4930661,26.0247931 L20.3572048,28.464518 L17.5129361,24.259385 L18.3958709,22.2692046 L15.7440663,18.3486139 Z M8.24950486,7.67950239 L6.97887254,9.09621359 L5.46154462,2.32166172 L11.1842363,6.25171412 L9.39644323,6.90387667 L10.0428365,7.85950479 L10.110222,8.371127 L13.4363433,13.2888849 L13.4363433,14.9363684 L9.34567333,8.88828774 L8.8958981,8.63536129 L8.24950486,7.67950239 Z M10.01999,21.7519054 L7.84426869,21.6736736 L5,25.8788066 L7.68734352,26.0248855 L8.82320482,28.4646103 L11.6674735,24.2594773 L10.7845387,22.2692969 L13.4363433,18.3487062 L13.4363433,16.7007611 L10.01999,21.7519054 Z" id="Fill-5"></path>
        </g>
    </g>
</svg>