<?xml version="1.0" encoding="UTF-8"?>
<svg width="30px" height="30px" viewBox="0 0 30 30" version="1.1" xmlns="http://www.w3.org/2000/svg" xmlns:xlink="http://www.w3.org/1999/xlink">
    <!-- Generator: Sketch 45.1 (43504) - http://www.bohemiancoding.com/sketch -->
    <title>icons/skellige</title>
    <desc>Created with Sketch.</desc>
    <defs></defs>
    <g id="symbols" stroke="none" stroke-width="1" fill="none" fill-rule="evenodd">
        <g id="icons/skellige" fill="#57009B">
            <path d="M7.97116594,18.960516 L4.94796306,21.9927804 C3.49193915,20.3846757 2.75761767,18.1905325 3.52281556,15.3128573 C4.59677751,11.2730698 5.67073945,10.7344315 6.47621091,8.8491974 C6.47621091,8.8491974 7.3769965,6.42532495 6.30303455,5.61736746 C5.2290726,4.80940998 4.96058212,6.15600578 5.2290726,6.69464411 C4.15511066,7.23328243 3.54751668,5.21554327 4.96058212,4.27077166 C5.76605358,3.73213333 8.26006171,4.00145249 8.22139908,7.09862285 C8.20770606,8.17563017 6.34196567,12.2156869 6.34196567,14.6395594 C6.34196567,17.0634318 7.14743713,18.4100276 7.95290859,18.9486659 C7.95881538,18.9524364 7.96525915,18.9564762 7.97116594,18.960516 Z M25.5001312,14.6394516 C25.5001312,12.2155792 23.6206978,8.17579177 23.6206978,7.09851512 C23.6206978,6.02123848 23.8891883,6.29055764 23.8891883,4.67464267 C23.8891883,3.0587277 23.6206978,2.52008938 23.6206978,2.52008938 L28.5877718,5.34794057 L28.5877718,6.42521722 C28.5877718,7.50249386 27.7823003,6.96385554 27.7823003,6.96385554 C27.7823003,6.96385554 27.5138099,6.15589806 26.9768289,6.42521722 C26.4398479,6.69453638 27.2453194,7.2331747 27.5138099,7.50249386 C27.7823003,7.77181302 26.9768289,8.31045135 26.4398479,8.31045135 C26.4398479,7.77181302 25.9028669,6.96385554 25.365886,6.42521722 C24.828905,5.8865789 24.5604145,6.96385554 25.365886,8.84908967 C26.1713574,10.7343238 27.2453194,11.2729621 28.3192813,15.3127495 C29.0944134,18.2283988 28.3308264,20.4424716 26.8364084,22.0565013 L23.797633,19.0083471 C23.8282409,18.9884174 23.8593858,18.9684878 23.8891883,18.9485582 C24.6946597,18.4099199 25.5001312,17.0633241 25.5001312,14.6394516 Z M9.94969919,19.9052607 L6.92058952,23.6043593 L4.55787323,26.4895755 C4.55787323,26.4895755 3.75240177,27.0282138 3.2154208,26.4895755 C2.67843983,25.9509372 2.94693031,25.1429797 2.94693031,25.1429797 L5.51960616,22.5623635 L8.68698843,19.3852054 L9.12221151,18.948639 C9.12221151,18.948639 10.1961735,17.6020432 10.7331544,18.1406815 C11.0016449,18.4100007 10.7331544,18.948639 10.7331544,18.948639 L9.94969919,19.9052607 Z M21.7714547,20.0323584 L20.9879994,19.0757367 C20.9879994,19.0757367 20.7195089,18.5370984 20.9879994,18.2677792 C21.5249804,17.7291409 22.5989423,19.0757367 22.5989423,19.0757367 L23.0341654,19.5123031 L26.2015477,22.6894612 L28.7742235,25.2700774 C28.7742235,25.2700774 29.042714,26.0780349 28.505733,26.6166732 C27.9687521,27.1553115 27.1632806,26.6166732 27.1632806,26.6166732 L24.8005643,23.731457 L21.7714547,20.0323584 Z M20.1303215,20.295154 C20.4162638,20.2542175 20.6818009,20.2062787 20.932571,20.1537615 L24.1034437,24.025763 C21.4687465,25.1439762 16.9411915,25.2632846 16.00765,25.2759426 L16.00765,25.2775585 C16.00765,25.2775585 15.9759682,25.2775585 15.9209276,25.2770199 C15.8658871,25.2775585 15.8344737,25.2775585 15.8344737,25.2775585 L15.8344737,25.2759426 C14.8899241,25.2630153 10.2700083,25.1407444 7.65007817,23.9864424 L10.8064523,20.1319466 C11.0862194,20.1933514 11.3863918,20.2485618 11.7118023,20.295154 C13.3871829,20.5353867 15.4840936,20.5612413 15.9209276,20.5639345 C16.3577616,20.5612413 18.4549408,20.5353867 20.1303215,20.295154 Z M15.2974927,18.1406007 L15.2974927,11.94626 L10.7331544,17.0633241 L10.7331544,6.82919596 L15.2974927,6.82919596 L15.2974927,5.21328099 C15.2974927,5.21328099 15.2974927,3.86668519 15.8344737,3.86668519 C16.3714547,3.86668519 16.3714547,5.21328099 16.3714547,5.21328099 L16.3714547,6.82919596 L20.9357929,6.82919596 L20.9357929,17.0633241 L16.3714547,11.94626 L16.3714547,18.1406007 C16.3714547,18.1406007 16.3714547,18.9485582 15.8344737,18.9485582 C15.2974927,18.9485582 15.2974927,18.1406007 15.2974927,18.1406007 Z" id="Fill-13"></path>
        </g>
    </g>
</svg>