<?xml version="1.0" encoding="UTF-8"?>
<svg width="30px" height="30px" viewBox="0 0 30 30" version="1.1" xmlns="http://www.w3.org/2000/svg" xmlns:xlink="http://www.w3.org/1999/xlink">
    <!-- Generator: Sketch 45.1 (43504) - http://www.bohemiancoding.com/sketch -->
    <title>icons/twitter</title>
    <desc>Created with Sketch.</desc>
    <defs></defs>
    <g id="symbols" stroke="none" stroke-width="1" fill="none" fill-rule="evenodd">
        <g id="icons/twitter">
            <circle id="Oval-Copy" stroke="#3A96FF" cx="15" cy="15" r="14.5"></circle>
            <path d="M19.4089286,12.2178571 L19.4089286,12.5464286 C19.4089286,15.5857143 17.1089286,19.2 12.7553571,19.2 C11.4410714,19.2 10.2089286,18.7892857 9.22321429,18.1321429 L9.79821429,18.1321429 C10.8660714,18.1321429 11.8517857,17.7214286 12.6732143,17.1464286 C11.6875,17.1464286 10.7839286,16.4892857 10.5375,15.5035714 L10.9482143,15.5035714 C11.1946429,15.5035714 11.3589286,15.5035714 11.5232143,15.4214286 C10.4553571,15.175 9.63392857,14.2714286 9.63392857,13.1214286 L9.63392857,13.1214286 C9.9625,13.2857143 10.2910714,13.3678571 10.7017857,13.45 C10.0446429,13.0392857 9.63392857,12.3 9.63392857,11.4785714 C9.63392857,11.0678571 9.71607143,10.6571429 9.9625,10.3285714 C11.1125,11.725 12.8375,12.6285714 14.7267857,12.7928571 C14.7267857,12.6285714 14.6446429,12.4642857 14.6446429,12.3 C14.6446429,10.9857143 15.7125,10 16.9446429,10 C17.6017857,10 18.2589286,10.2464286 18.6696429,10.7392857 C19.1625,10.6571429 19.7375,10.4107143 20.1482143,10.1642857 C19.9839286,10.7392857 19.5732143,11.15 19.1625,11.4785714 C19.6553571,11.3964286 20.0660714,11.3142857 20.4767857,11.15 C20.1482143,11.6428571 19.7375,12.0535714 19.3267857,12.3821429 L19.4089286,12.2178571 Z" id="Shape" fill="#3A96FF" fill-rule="nonzero"></path>
        </g>
    </g>
</svg>