<?xml version="1.0" encoding="UTF-8"?>
<svg width="30px" height="30px" viewBox="0 0 30 30" version="1.1" xmlns="http://www.w3.org/2000/svg" xmlns:xlink="http://www.w3.org/1999/xlink">
    <!-- Generator: Sketch 45.1 (43504) - http://www.bohemiancoding.com/sketch -->
    <title>icons/twitch</title>
    <desc>Created with Sketch.</desc>
    <defs></defs>
    <g id="symbols" stroke="none" stroke-width="1" fill="none" fill-rule="evenodd">
        <g id="icons/twitch">
            <circle id="Oval-Copy" stroke="#9013FE" cx="15" cy="15" r="14.5"></circle>
            <path d="M9.0123558,8 L8,10.5871315 L8,21.1606255 L11.5994873,21.1606255 L11.5994873,23.0728531 L13.6241989,23.0728531 L15.5364265,21.1606255 L18.46101,21.1606255 L22.3979492,17.2236862 L22.3979492,8 L9.0123558,8 Z M10.2496796,9.34980774 L21.0481415,9.34980774 L21.0481415,16.5487823 L18.7984619,18.7984619 L15.1989746,18.7984619 L13.286747,20.7106895 L13.286747,18.7984619 L10.2496796,18.7984619 L10.2496796,9.34980774 Z M17.4486542,15.8738785 L18.7985744,15.8738785 L18.7985744,11.9369392 L17.4486542,11.9369392 L17.4486542,15.8738785 Z M13.8491669,15.8738785 L15.1989746,15.8738785 L15.1989746,11.9369392 L13.8491669,11.9369392 L13.8491669,15.8738785 Z" id="Page-1" fill="#9013FE"></path>
        </g>
    </g>
</svg>