<?xml version="1.0" encoding="UTF-8"?>
<svg width="154px" height="14px" viewBox="0 0 154 14" version="1.1" xmlns="http://www.w3.org/2000/svg" xmlns:xlink="http://www.w3.org/1999/xlink">
    <!-- Generator: Sketch 45.1 (43504) - http://www.bohemiancoding.com/sketch -->
    <title>logo/Fade2karma</title>
    <desc>Created with Sketch.</desc>
    <defs></defs>
    <g id="symbols" stroke="none" stroke-width="1" fill="none" fill-rule="evenodd">
        <g id="logo/Fade2karma" fill="#EF3418">
            <path d="M0,0.0854711864 L0,13.9977537 L3.89594603,13.9977537 L3.89594603,9.04365198 L13.5368386,9.04365198 L13.5368386,5.03965198 L3.89594603,5.03965198 L3.89594603,4.02168588 L13.5368386,4.02168588 L13.5368386,0.0854711864 L0,0.0854711864 Z M24.1681027,6.77346893 C24.1681027,6.30537853 24.0410393,5.7899887 23.8188514,5.35677966 C23.3730903,4.48767232 22.583696,4.09187571 21.2930513,4.09029379 C19.4552102,4.088 18.563611,4.88774011 18.4026075,6.68266667 C18.3869073,6.85849718 18.3899858,7.01882486 18.409611,7.03891525 C18.4291592,7.05900565 24.1681027,7.07553672 24.1681027,7.07553672 L24.1681027,6.77346893 Z M27.9067394,5.17533333 C27.997554,5.65853107 28.0200268,6.42149153 28.0449623,9.87498305 L28.0746695,13.9977062 L24.1681027,13.9977062 L24.1681027,11.0116723 L18.3572002,11.0116723 L18.3572002,13.9977062 L14.5199758,13.9977062 L14.5437569,9.77318644 C14.569539,5.19653107 14.5723096,5.15737853 14.9572712,3.97884746 C15.8350173,1.29148023 18.1778799,-0.0488022599 21.7248824,0.107175141 C25.3464606,0.26639548 27.2821197,1.85337853 27.9067394,5.17533333 Z M38.6203678,7.81646893 C38.4311194,8.94398305 37.8472894,9.61756497 36.8133883,9.90144068 L36.8133883,9.90136158 C36.5767316,9.96637853 35.9738921,9.99208475 34.6838631,9.99287571 L32.8844258,9.99366667 L32.8844258,6.99829944 L32.8844258,4.0029322 L34.6838631,4.04137288 C36.5622629,4.08147458 36.8582569,4.12252542 37.4270025,4.42127119 C38.4105707,4.93808475 38.8795742,6.27235593 38.6203678,7.81646893 M37.0775972,0.16020904 C39.7278441,0.492728814 41.395985,1.76063842 42.1130355,3.98750847 C42.441969,5.00919209 42.4923018,5.41416384 42.4923018,7.04140678 C42.4923018,8.66857062 42.441969,9.07362147 42.1130355,10.0953051 C41.5292054,11.9084237 40.261957,13.1285593 38.4158811,13.6547853 C37.3585067,13.9562203 36.7203418,13.9947401 32.7689065,13.9961638 L29.0545127,13.9977458 L29.0545127,7.04164407 L29.0545897,7.04156497 L29.0545897,0.0854632768 C29.0545897,0.0854632768 36.7107986,0.114254237 37.0775972,0.16020904 Z M43.5138121,13.9976983 L43.5488296,10.0276305 L57.0525747,9.99306554 L57.0525747,13.9976983 L43.5138121,13.9976983 Z M66.8254486,9.71778757 L66.8254486,9.99367458 L76.4662642,9.99367458 L76.4662642,13.9976746 L62.9148799,13.9976746 C62.9148799,13.9976746 62.9997684,8.05052203 63.0888899,7.69237514 C63.4200553,6.36047684 64.1701992,5.57584407 65.4717724,5.19942599 C65.8087099,5.10197966 66.3469018,5.07896271 69.07057,5.0452678 C72.4257074,5.00374237 72.5122122,4.99535819 72.6033346,4.70032994 C72.6688289,4.48819435 72.5797844,4.30216045 72.3509778,4.17355028 C72.1583431,4.0652678 71.7631457,4.05387797 67.5352647,4.03481582 L62.9295025,4.01409266 L62.9295025,2.04982147 L62.9295025,0.0854711864 L67.5469628,0.0854711864 C73.0684131,0.0854711864 73.2931407,0.105877966 74.4344031,0.710883616 C75.3422412,1.19202486 75.9988769,2.09411525 76.3011047,3.27509831 C76.3702162,3.54544859 76.4270908,4.09888362 76.4479473,4.70460113 C76.4774236,5.56303051 76.4634936,5.76781017 76.3416635,6.26263503 C76.0221962,7.56131299 75.1947829,8.36358418 73.7589118,8.76697401 C72.9764441,8.98678192 72.1735815,9.0411209 69.6911877,9.04246554 C68.1721982,9.0432565 67.3013016,9.06951638 67.1640793,9.11863503 C66.9084131,9.21022825 66.8254486,9.35703051 66.8254486,9.71778757 Z M95.9125006,0.0854870056 L89.1447355,7.04198418 L95.9128855,13.9976904 L90.1029064,13.9976904 L86.2392073,10.0284927 L86.2392073,13.9976904 L82.4092173,13.9976904 L82.4092173,0.0854870056 L86.2392073,0.0854870056 L86.2392073,4.05468475 L90.1029064,0.0854870056 L95.9125006,0.0854870056 Z M106.535745,7.02195706 L106.535745,7.02195706 C106.518044,7.05138079 105.212623,7.07558418 103.634989,7.07558418 L100.766402,7.07558418 L100.768788,6.7531887 C100.77633,5.72011525 101.331607,4.72144859 102.087062,4.38228475 C102.99313,3.97549379 104.459401,3.98213785 105.256645,4.39660113 C105.944989,4.75443164 106.391366,5.48148249 106.503806,6.42810395 C106.539132,6.7252678 106.553447,6.99245424 106.535745,7.02195706 M104.811577,0.147640678 C107.753738,0.476522034 109.483679,1.90080452 110.136698,4.53209266 C110.37728,5.50141469 110.407295,6.11931299 110.407295,10.1107367 L110.407295,13.9976746 L106.577305,13.9976746 L106.577305,11.0116407 L100.766402,11.0116407 L100.766402,13.9976746 L96.8598354,13.9976746 L96.8896195,9.87495141 C96.9217894,5.41535819 96.9344111,5.23842034 97.3074436,4.05553898 C97.9708519,1.95182147 99.4629048,0.681934463 101.782525,0.246827119 C102.558605,0.101290395 103.980084,0.0547819209 104.811577,0.147640678 Z M43.5157361,9.04360452 L43.5157361,5.03960452 L57.0525747,5.03960452 L57.0525747,9.04360452 L43.5157361,9.04360452 Z M43.5157361,4.02163842 L43.5157361,0.0855028249 L57.0525747,0.0855028249 L57.0525747,4.02163842 L43.5157361,4.02163842 Z M150.067936,6.97753672 C150.036767,7.06090395 149.60178,7.07553672 147.15679,7.07553672 L144.282277,7.07553672 L144.283354,6.82100565 C144.285047,6.4379435 144.45267,5.70053107 144.61021,5.38327684 C144.790377,5.02030508 145.191577,4.60987571 145.550603,4.42131073 C146.009832,4.1799887 146.450591,4.09108475 147.187651,4.09108475 C148.250336,4.09108475 148.868722,4.31128814 149.396678,4.87761582 C149.558759,5.05131073 149.742004,5.34546893 149.821813,5.55989831 C149.977583,5.97839548 150.12458,6.82543503 150.067859,6.97753672 L150.067936,6.97753672 Z M153.852673,5.53648588 C153.650341,4.0100904 153.118691,2.74771751 152.324525,1.9079548 C151.106224,0.619559322 149.184495,0.00189830508 146.72542,0.108045198 C143.231521,0.258881356 141.249839,1.8120113 140.619447,4.89343503 C140.443513,5.75320904 140.387639,7.13541243 140.386869,10.6214124 L140.387023,10.6214124 L140.386254,13.9977062 L142.334304,13.9977062 L144.2822,13.9977062 L144.2822,12.5046893 L144.2822,11.0116723 L147.187651,11.0116723 L150.093102,11.0116723 L150.093102,12.5046893 L150.093102,13.9977062 L152.008136,13.9977062 L153.923092,13.9977062 L153.923092,10.0325424 C153.923092,7.60326554 153.895771,5.86172881 153.852673,5.53648588 L153.852673,5.53648588 Z M120.899666,4.87639774 L120.899666,4.87639774 C120.768447,4.99852203 120.60752,5.00666893 117.991291,5.02478192 L115.22183,5.04384407 L115.241302,4.54973107 L115.260619,4.05553898 L117.57185,4.03758418 C119.983439,4.01875932 120.700567,4.06756158 120.912827,4.26506441 C121.079064,4.41961808 121.072676,4.71535819 120.899666,4.87639774 M123.382522,11.1473695 C124.100111,12.4724655 124.745357,13.6558215 124.816315,13.7771548 L124.945303,13.9976746 L122.678247,13.9975955 L120.411269,13.9975164 L119.057592,11.5222056 L117.703993,9.04697401 L116.465836,9.04531299 L115.227679,9.04381017 L115.227679,11.5207819 L115.227679,13.9978328 L113.312723,13.9978328 L111.397766,13.9978328 L111.397766,7.03856723 L111.397766,7.03840904 L111.397766,0.0790644068 L116.333693,0.103663277 C121.870074,0.131188701 121.675592,0.114894915 122.744973,0.639538983 C123.759941,1.13744859 124.407342,2.00181017 124.744433,3.30903051 C124.946226,4.09160678 124.951998,5.63603616 124.755438,6.24404746 C124.415115,7.29634124 123.577235,8.1152226 122.441283,8.50579887 C122.214015,8.58386667 122.039313,8.66810395 122.052935,8.69301921 C122.066634,8.71785537 122.664933,9.82235254 123.382522,11.1473695 Z M132.660425,7.04111412 C132.660425,7.04111412 139.3854,0.153351412 139.41249,0.153351412 C139.439658,0.153351412 139.461823,13.9976904 139.461823,13.9976904 L135.565877,13.9976904 L135.565877,10.0287299 L132.660425,13.0125492 L129.754974,10.0287299 L129.754974,13.9976904 L125.924984,13.9976904 L125.924984,0.119893785 L132.660425,7.04111412 Z" id="Fill-1"></path>
        </g>
    </g>
</svg>