<?xml version="1.0" encoding="UTF-8"?>
<svg width="48px" height="45px" viewBox="0 0 48 45" version="1.1" xmlns="http://www.w3.org/2000/svg" xmlns:xlink="http://www.w3.org/1999/xlink">
    <!-- Generator: Sketch 45.1 (43504) - http://www.bohemiancoding.com/sketch -->
    <title>logo/tree</title>
    <desc>Created with Sketch.</desc>
    <defs></defs>
    <g id="symbols" stroke="none" stroke-width="1" fill="none" fill-rule="evenodd">
        <g id="logo/tree" fill="#C0C0C0">
            <path d="M14.7133892,44.0104089 C14.2195316,43.9901346 13.7907529,43.9566278 13.2692696,43.8973525 C11.0023375,43.6398996 9.02474016,43.313808 9.0231925,43.1972694 C9.02249606,43.1503753 9.16611872,43.0965942 9.40345207,43.0548848 C9.90195271,42.9672874 10.2042103,42.8302423 10.8329464,42.4068031 C11.4655516,41.9808102 11.6996348,41.9014927 12.2309458,41.932678 C12.4552789,41.9459105 12.5284057,41.9640955 12.731381,42.0566454 C12.9188798,42.1422309 13.0128226,42.1676125 13.1766422,42.1765889 C13.4562267,42.1919881 13.5661104,42.1670708 13.6875241,42.0604372 C13.7852587,41.9745422 13.7891279,41.9642503 13.7717941,41.8337053 C13.7618117,41.7584891 13.709733,41.5518768 13.6560293,41.3745926 C13.5268772,40.9479033 13.5007992,40.8271859 13.4537504,40.4374083 C13.3598076,39.6593232 13.4296069,38.7027932 13.633124,37.9781797 C13.8162893,37.3259967 14.481937,36.2725833 15.4310382,35.1328879 C15.6012806,34.9284423 16.0696793,34.4265368 16.4719156,34.0176456 C16.8741519,33.6087543 17.2685726,33.1904998 17.348277,33.0882769 C17.979025,32.2796257 18.4447926,31.3097858 18.6531074,30.3716729 C18.701936,30.1515185 18.7136982,29.9995385 18.7150911,29.570992 C18.7171031,28.956417 18.6865368,28.7969309 18.4875854,28.3842479 C18.2027389,27.7932747 17.6623741,27.3791988 16.9132303,27.1776937 C16.6615037,27.1099837 16.5757635,27.1010847 16.1575089,27.0996918 C15.7320577,27.0982989 15.6698419,27.1044895 15.525368,27.1626041 C15.0881546,27.3385728 14.6686619,27.7708336 14.496485,28.2228272 C14.4083458,28.4541246 14.3894644,28.8574443 14.455472,29.1010457 C14.516295,29.3257656 14.6774062,29.5835281 14.8351899,29.7085014 C15.258397,30.0437242 15.8796269,30.0540161 16.262208,29.7319485 C16.389735,29.6246958 16.4963686,29.4022199 16.5600547,29.1101769 C16.6279195,28.7992524 16.6349614,28.7847044 16.6935402,28.8332235 C16.8882356,28.9943347 16.8917178,29.5684384 16.7004273,29.9435133 C16.6069488,30.126756 16.3557639,30.3554999 16.1236152,30.4688658 C15.3013445,30.8703283 14.2736996,30.4395377 13.8020508,29.4956985 C13.6559519,29.2032685 13.6092126,29.018865 13.5929622,28.6702551 C13.5692831,28.1626233 13.6738274,27.7962152 13.9888531,27.2833214 C14.0806293,27.133895 14.1556907,26.989189 14.1556907,26.9616407 C14.1557681,26.8982641 14.0627538,26.8967164 13.7076437,26.9543667 C12.859914,27.0918761 11.8720439,27.6159905 10.6099289,28.5979021 C9.97624029,29.0909085 9.24458498,29.6031059 8.57429431,30.0230629 C7.36750799,30.7790939 6.86591204,31.2493497 6.49455151,31.9730346 C6.23469973,32.4792735 6.13139356,32.9350588 6.15561441,33.4675305 C6.18068647,34.0181872 6.34690493,34.4048696 6.71888453,34.7780873 C6.88587683,34.9456213 6.99088542,35.0226173 7.17838419,35.1144708 C7.47986796,35.2622721 7.68655769,35.3021243 8.01798864,35.2764332 C8.51556068,35.2378965 8.76813847,35.1299474 9.03921076,34.8401484 C9.32900972,34.5303073 9.45669151,34.1909833 9.42945273,33.8032176 C9.39973769,33.3800105 9.19366703,33.0519844 8.83894382,32.8628606 C8.5132392,32.6892907 8.24402409,32.6930825 7.87243141,32.8763252 C7.57257267,33.0242039 7.52591079,32.9991318 7.71913589,32.7940672 C8.18954653,32.2947927 8.9879059,32.2821793 9.48013852,32.7662867 C10.02267,33.2999966 10.1628105,34.1573217 9.82085543,34.8502082 C9.49391268,35.5125284 8.82338986,35.9577122 8.04414406,36.0297557 C7.22202814,36.1058231 6.64537078,35.9088836 6.01802761,35.3381074 C5.31879573,34.7017104 5.06683701,34.0496047 5.09926045,32.9595892 C5.11365367,32.4755592 5.13106482,32.3647468 5.26725872,31.8896932 C5.31423014,31.725951 5.35485616,31.5398451 5.35756457,31.4760816 L5.36259445,31.3602394 L4.97653117,31.2728741 C4.51494218,31.1681751 4.31219898,31.0972923 3.93333231,30.9077042 C2.85422778,30.3678037 2.264957,29.5698313 2.14586472,28.4871671 C2.06933303,27.7918044 2.28097526,27.0192135 2.68800931,26.5080995 C2.98546917,26.1346496 3.38615783,25.8795956 3.88342034,25.7472708 C4.24263175,25.6517029 4.87771321,25.6372323 5.17664335,25.7177106 C6.03551615,25.9490854 6.68808614,26.6705262 6.85144144,27.5693286 C6.96209898,28.1778677 6.82598246,28.6847257 6.44997896,29.0644436 C6.22572331,29.2908659 6.0090512,29.4265955 5.7054007,29.5308303 C5.39788106,29.6363032 4.97281679,29.6420295 4.69060136,29.5446818 C4.28588879,29.4049283 3.90841501,29.1062303 3.76417329,28.8116336 C3.54773332,28.3696999 3.6251936,27.7931199 3.94795767,27.4429623 C4.0768002,27.3032088 4.25323321,27.1796283 4.28240656,27.2087243 C4.29215681,27.2185519 4.25865001,27.2811547 4.20796422,27.3478587 C4.02495366,27.5886743 3.96134492,27.7603096 3.96134492,28.0131969 C3.96134492,28.2144698 3.97279758,28.265852 4.05482346,28.4323027 C4.24270914,28.8139551 4.65260635,29.1110281 5.07078354,29.1685236 C5.40732177,29.2148759 5.68907291,29.0945455 5.97391936,28.7829246 C6.3859833,28.3320918 6.43171659,27.6895816 6.10098208,27.0003321 C5.94505554,26.6755561 5.78355743,26.5083316 5.46566848,26.3429644 C5.14785691,26.1775971 4.85349236,26.1039286 4.50503717,26.1026131 C3.97380356,26.1004464 3.65103949,26.2286698 3.30351289,26.5800656 C3.04273252,26.8437865 2.92812844,27.0388688 2.81445297,27.412783 C2.56528003,28.2322679 2.90174088,29.3051044 3.54456062,29.7410023 C3.96296996,30.0246106 4.3361103,30.1416909 4.89071354,30.1635129 C5.51914006,30.1880433 6.15182264,30.0684867 6.65279953,29.8305343 C7.09674523,29.6195885 8.13576542,28.9658578 8.65105814,28.5732169 C8.74546528,28.5012508 8.95780395,28.3132104 9.12286168,28.1552719 C9.91116127,27.4015624 11.1051794,26.5205581 11.8288643,26.1587157 C12.9234454,25.6113091 13.445393,25.5105565 15.1852702,25.5105565 C16.8620802,25.5105565 17.3591879,25.5968385 18.3422603,26.0585822 C18.8671485,26.3052015 18.9884849,26.3456728 18.9884849,26.274171 C18.9884849,26.1355008 18.3006283,25.2904796 17.9161127,24.9568045 C17.3424732,24.4589229 16.4583736,24.019775 15.7428139,23.8773905 C15.4438838,23.817883 12.9796254,23.8265499 12.0254168,23.8904682 C10.5515048,23.9891314 10.1326311,24.0033698 9.72745427,23.9683927 C8.98016761,23.9040102 8.04445359,23.7133387 7.67943846,23.5509894 C6.75177226,23.1386159 5.43278074,22.0275522 4.70963755,21.0494324 C4.02356077,20.1216114 4.00228047,20.0994799 3.66558747,19.9661492 C3.19517683,19.7798886 2.8921454,19.748858 2.50608211,19.8475986 C2.03497502,19.9680838 1.60108911,20.2896871 1.43719212,20.6399995 C1.37188096,20.7794435 1.35771989,20.8531894 1.34959468,21.0961717 C1.3255286,21.8114992 1.61726213,22.2747132 2.17449639,22.4061094 C2.65721091,22.5198622 2.90499096,22.4362887 3.41092035,21.9893251 C3.48567223,21.9233175 3.55338227,21.8758044 3.56135271,21.8838522 C3.56940053,21.8918226 3.53001263,21.9900989 3.47398742,22.1021494 C3.14541963,22.7589754 2.19012773,23.0244761 1.53554579,22.6408117 C1.35756512,22.536577 1.12974987,22.2761835 1.01220524,22.0427967 C0.862391949,21.7453368 0.79862844,21.4637404 0.796926016,21.0920704 C0.795068827,20.7109596 0.84799873,20.47115 1.00802657,20.1356951 C1.10073128,19.9413867 1.16820917,19.8496105 1.3517614,19.6683024 C1.60929169,19.4138674 1.92632943,19.1947191 2.16753193,19.1044906 C2.36532262,19.0304352 2.61619798,18.9977796 3.22520139,18.9664395 C3.48087449,18.9532844 3.69801091,18.9345578 3.70783854,18.9247301 C3.71766617,18.9149025 3.69174289,18.6522649 3.65026566,18.3410309 C3.55864431,17.653716 3.55423348,17.2310506 3.63022349,16.4015833 C3.66040282,16.0718548 3.69336794,15.7056015 3.70350509,15.5875926 C3.73035696,15.2739597 3.68415937,15.0445194 3.53217936,14.7371545 C3.24052321,14.1473421 2.70959914,13.8043811 2.08836922,13.8043811 C1.43587662,13.8043811 0.820140886,14.2244154 0.672416931,14.7703518 C0.434000219,15.6510466 1.24450871,16.5195149 1.96757452,16.1582141 C2.26998689,16.0070853 2.46243816,15.7114052 2.46375367,15.3959152 C2.46445011,15.2079521 2.43937805,15.1291763 2.33382778,14.988649 C2.29320176,14.9345583 2.25992711,14.8734258 2.25992711,14.8529194 C2.25992711,14.724309 2.5201658,14.9706961 2.63848425,15.2112796 C2.719272,15.3754087 2.73134373,15.4285707 2.7287901,15.6079443 C2.72345068,15.9916087 2.51722525,16.2896103 2.12853095,16.4753292 C1.88988209,16.5893142 1.69549624,16.6257616 1.40128646,16.6117553 C1.19041806,16.6016181 1.12123775,16.5849034 0.955174045,16.5037287 C0.686810151,16.3725647 0.423321379,16.1029627 0.269174643,15.802098 C0.106438406,15.484209 0.0718482502,15.338884 0.0750983319,14.9871013 C0.0801282204,14.4445698 0.28643103,14.004648 0.729680277,13.5914233 C0.993014283,13.3458874 1.35679129,13.1531266 1.69046635,13.0822439 C2.01849246,13.0125219 2.57270879,13.0404571 2.88905008,13.1425251 C3.69862997,13.4037698 4.29556166,13.9175149 4.62188534,14.6340805 C4.67814271,14.7575062 4.72906066,14.863366 4.73509652,14.8694793 C4.74113239,14.8755925 4.87190949,14.7777806 5.02574669,14.6522655 C5.42403648,14.3271026 5.66477468,14.1680033 5.99171743,14.0137792 C6.6135664,13.7204206 7.0416486,13.6175014 7.73600536,13.5946734 C8.52647167,13.5685954 9.04300253,13.6717468 9.66253002,13.9794212 C10.1859479,14.2393503 10.5121169,14.5389769 10.8991861,15.1157891 C11.3580667,15.7995444 11.5209577,16.3847912 11.4882248,17.2319018 C11.4640813,17.8552985 11.3041308,18.3568944 10.9687534,18.8609666 C10.546707,19.4952742 9.75005008,19.9406902 8.84049148,20.0508835 C7.78537565,20.1787974 6.74921863,19.5974971 6.26248019,18.6045197 C6.08117206,18.2346294 6.03180177,18.0466664 6.01377155,17.6568113 C5.98227671,16.9773895 6.17581134,16.4709958 6.64691843,15.9998113 C7.05519061,15.5915391 7.49263614,15.3923555 8.03903679,15.3658132 C8.61948592,15.3377232 9.03139509,15.4919473 9.42651217,15.8854394 C9.78224136,16.2397757 9.92361992,16.5697364 9.92361992,17.0460281 C9.92361992,17.7830228 9.52409201,18.3643232 8.8982965,18.5378156 C8.35027081,18.6897957 7.80317371,18.4914633 7.58162647,18.0605179 C7.51058897,17.9222347 7.40658636,17.5292069 7.40859831,17.4060134 C7.40968167,17.3356723 7.42624161,17.3613634 7.48992774,17.5321475 C7.6543664,17.9733074 7.79682832,18.146026 8.0589242,18.2222482 C8.27164979,18.2839997 8.64742115,18.2686779 8.8512477,18.1897474 C9.08796199,18.0982034 9.34711732,17.8390481 9.4336314,17.6076732 C9.66059545,17.0002174 9.40763075,16.3238135 8.85542638,16.0618724 C8.45117811,15.8701176 7.87560411,15.810997 7.5434767,15.9271488 C7.10479305,16.0806764 6.7325813,16.5182767 6.58965509,17.0485044 C6.52062954,17.3041775 6.52008786,17.80469 6.58841696,18.0308803 C6.74952816,18.5635841 7.09860242,18.9769636 7.59300176,19.2204876 C8.13615233,19.4880003 8.66537398,19.5127628 9.25975203,19.2984895 C10.4008403,18.8873542 11.0069805,17.6551089 10.6928833,16.3855651 C10.4859614,15.5491333 9.82588532,14.8731937 8.89945725,14.5489593 C8.66367155,14.4663918 8.62343245,14.4614393 8.10558608,14.4495997 C7.44597425,14.4345874 7.26729714,14.469874 6.77119537,14.7130885 C5.40051208,15.3850816 4.71048876,16.7577768 4.99316849,18.2501834 C5.14205319,19.0359294 5.60913637,19.7698288 6.53881452,20.6785362 C7.18960471,21.3146236 7.78142912,21.7344258 8.42664773,22.0175698 C9.36065933,22.4275444 10.0924694,22.5358031 11.3534237,22.4506819 C12.2986559,22.386841 14.0858913,22.3574355 15.0599872,22.3897042 C16.4561295,22.4359018 16.9249925,22.4862007 17.5225432,22.6540442 C18.4081905,22.9026755 19.07763,23.2863399 19.7825882,23.9492018 C20.1730623,24.3163836 20.2975714,24.413267 20.3324711,24.3772066 C20.3808354,24.3272946 20.4862309,22.5150645 20.4843737,21.764373 C20.4803498,20.1233912 20.198057,18.9973927 19.5666125,18.1040845 C19.3147312,17.7478136 18.6021121,17.0350397 18.24499,16.7821524 C17.6872141,16.3872675 17.4029093,16.2830327 16.973589,16.3159204 C16.1971289,16.3754279 15.5320229,16.5859094 15.1411619,16.8956731 C14.2540443,17.5986194 13.8976187,18.762613 14.3123137,19.6019853 C14.5713142,20.126177 14.9576097,20.4426731 15.4527055,20.5366159 C15.7018784,20.5838969 16.1323595,20.5691941 16.3352574,20.506514 C17.0840917,20.2752165 17.5887056,19.4139448 17.3999687,18.689254 C17.2398635,18.074679 16.5788588,17.5035158 16.0276604,17.5035158 C15.89077,17.5035158 15.7571298,17.4625803 15.7571298,17.4207161 C15.7571298,17.3103681 16.5205895,17.3038679 16.8219959,17.4116623 C17.2243095,17.5555945 17.72459,17.9804266 17.8987015,18.326096 C18.1108854,18.7475233 18.1764287,19.4212188 18.0454969,19.834134 C17.8268128,20.5233834 17.3348123,20.993175 16.6122882,21.2025732 C15.9265209,21.4012924 15.1230543,21.345422 14.5851658,21.0615815 C14.0405449,20.7741814 13.5271094,20.2263879 13.3136874,19.7049819 C13.0382816,19.0319828 12.9933222,18.2473976 13.1961427,17.6515493 C13.5589138,16.5860642 14.5416766,15.6795235 15.7339923,15.310794 C15.9197886,15.2532985 16.0710722,15.1988209 16.0703758,15.1896897 C16.0696019,15.1804812 15.9122825,15.0571328 15.7206824,14.9155995 C15.0581301,14.4260753 14.8124393,14.1269904 14.2554372,13.1311498 C13.9231551,12.5373135 13.7984912,12.2468955 13.5418121,11.4698164 C13.2255482,10.512203 13.0751159,10.1782958 12.7819121,9.78372039 C12.4406535,9.32429812 11.9246643,8.95889607 11.3676622,8.78207614 C11.0610712,8.68472846 10.5543679,8.67002571 10.2372528,8.74934318 C9.93058438,8.82595225 9.58034938,8.99851611 9.3888267,9.1673656 C8.59588413,9.86644271 8.560288,11.3459264 9.31941424,12.0508846 C9.53894953,12.2547111 9.73619854,12.3340286 10.063683,12.3502016 C10.4871996,12.371095 10.7769985,12.2840393 11.1127629,12.0349437 C11.4612955,11.77633 11.6581576,11.5584972 11.6581576,11.0646395 C11.6581576,10.7985197 11.6501098,10.5859489 11.5279996,10.3397939 C11.2991783,9.87805015 11.0026471,9.66455073 10.5624931,9.64458594 C10.355107,9.63522261 10.3122368,9.6424966 10.1764299,9.71020664 C9.84430245,9.8977054 9.66345861,10.1470331 9.54483063,10.468946 L9.4662096,10.6834514 L9.47549555,10.4547075 C9.50451414,9.73249291 10.2096271,9.23646853 10.9377228,9.42613401 C11.1937828,9.49283807 11.3757874,9.60341824 11.6014359,9.82922154 C11.9405278,10.1684682 12.1100737,10.590205 12.1059724,11.0837531 C12.1025676,11.4803405 12.0097855,11.7943603 11.8054946,12.1001775 C11.4472118,12.6367505 10.4668479,13.0145338 9.72343036,12.9025608 C9.05275277,12.8014987 8.39484336,12.1235471 8.09715135,11.2267567 C7.83521023,10.4376059 7.94555825,9.60535281 8.40080185,8.93560382 C8.63000999,8.59836914 9.13191548,8.1777157 9.50505582,8.01018172 C9.84639179,7.8568862 10.0016219,7.83173676 10.6976037,7.81711139 C11.4650873,7.80101575 11.5557026,7.81726616 12.0245656,8.05436736 C12.5330487,8.31158812 12.788567,8.49862258 13.212161,8.92353208 C13.6338204,9.34658439 13.7670738,9.52139236 14.2320676,10.2611729 C14.5812192,10.8165499 14.8406841,11.1889938 15.0224565,11.3956062 L15.1458049,11.535824 L15.2083303,11.0771756 C15.3410419,10.104163 15.4486815,9.83634076 16.4028127,8.10536269 C17.4478687,6.20940428 17.8069254,5.29063711 17.8705341,4.34966106 C17.9353036,3.39111909 17.6936368,2.80811632 16.930951,2.08303856 C16.5869066,1.75586366 16.3764251,1.63855118 15.7702849,1.4361949 C15.2089493,1.24877352 14.9418236,1.2099273 14.5290632,1.25581536 C13.7924554,1.33776385 13.2480667,1.5977704 12.723488,2.11817039 C12.4729995,2.36672426 12.310805,2.59670624 12.1524022,2.92805982 C11.9644391,3.32139709 11.9156879,3.55277196 11.9161522,4.04918326 C11.9165391,4.43230599 11.9248191,4.50543283 11.9936899,4.73324809 C12.166718,5.30533986 12.5032562,5.79664389 12.9492139,6.12815223 C13.1384925,6.26883434 13.5149603,6.44983294 13.7411505,6.50879871 C14.8308565,6.7930261 15.9718673,6.16367098 16.3337871,5.07868535 C16.4230096,4.81117267 16.4298967,4.24983712 16.3469422,4.00631313 C15.9898202,2.9575427 14.9319959,2.44147615 14.0508369,2.88627305 C13.7162332,3.05519992 13.4144399,3.36558273 13.2877641,3.6711678 C13.0464068,4.25316458 13.3027764,4.9373068 13.8661239,5.21472449 C14.0353603,5.29798849 14.0834151,5.3078935 14.3636959,5.31748898 C14.6003328,5.32561418 14.702633,5.31725683 14.7946413,5.28204761 C14.9569906,5.22006391 15.176758,4.99944526 15.2679925,4.80699399 C15.3678938,4.59604821 15.3717629,4.21246118 15.2760403,3.9919973 L15.2139792,3.8489937 L15.3259523,3.97156821 C15.7759338,4.46418775 15.4413302,5.34960288 14.7057283,5.61247259 C14.4741213,5.69527229 14.0882128,5.694808 13.8578439,5.61146661 C13.4036837,5.44718272 13.041996,5.0553931 12.8907124,4.56393431 C12.8178177,4.32722002 12.8068294,3.93411489 12.866182,3.69175165 C12.9125344,3.50262784 13.0671454,3.18350077 13.200244,3.00219263 C13.3536943,2.79310404 13.6770774,2.50485274 13.8499508,2.4231364 C14.4242867,2.15136766 15.2425335,2.18835668 15.8143157,2.51197197 C16.0345475,2.63655843 16.3156022,2.87961812 16.4570581,3.06773595 C17.135474,3.9702527 17.1244082,5.24745746 16.430361,6.14935515 C15.8047203,6.96257203 14.6192142,7.37123113 13.5545803,7.14070747 C12.7095591,6.95785168 11.8629128,6.2586198 11.4386223,5.39316945 C11.2282956,4.96423604 11.1501389,4.63203126 11.1324956,4.09213077 C11.1118343,3.45968033 11.2053903,3.00312123 11.4697302,2.44782154 C11.808203,1.73644055 12.4350819,1.10731758 13.2207505,0.690378518 C13.6498387,0.462640646 14.0660813,0.381001687 14.9278172,0.355620096 C15.7796482,0.330470654 16.123383,0.411567932 16.9622911,0.835858369 C17.6338972,1.1755693 18.1423803,1.59134761 18.5292174,2.11708703 C19.3107073,3.17924471 19.3932748,4.60038165 18.7776939,6.39403987 C18.5664386,7.00985299 18.3792493,7.42300028 17.7265246,8.71413396 C17.3835636,9.39254984 17.0707819,10.0434948 17.0314714,10.1606525 C16.9306414,10.4608981 16.8725269,10.8574081 16.8730686,11.2410725 C16.8738424,11.7778003 16.9591184,12.2235258 17.1606234,12.7423782 C17.3923852,13.3388455 17.6676362,13.6976701 18.3308076,14.2674403 C19.9037698,15.6188553 20.4625517,16.1895542 20.9951782,16.9888421 C21.2836617,17.4217995 21.5085364,17.8967757 21.6770763,18.42917 C21.9625419,19.3312999 22.2540432,20.0396629 22.35201,20.0696875 C22.370195,20.0752591 22.4308632,19.9514464 22.491454,19.785228 C22.5504197,19.6234203 22.6620833,19.3172162 22.7395435,19.1048775 C23.0257829,18.3203697 23.4298764,17.5878632 24.0469276,16.7347167 C24.5527796,16.0354848 25.0792155,15.1483673 25.5763232,14.1575566 C25.7382083,13.8349473 25.9120103,13.4638189 25.9625413,13.3327323 C26.1799872,12.7687657 26.2805076,12.1919536 26.2802755,11.5090495 C26.2798886,10.5789844 26.0977292,9.88540152 25.6963441,9.28560667 C25.2528627,8.62289952 24.4790337,7.93589414 23.9272163,7.71504335 C23.2910515,7.46029884 22.3503849,7.46115005 21.7869601,7.71690054 C21.11458,8.02209869 20.6255201,8.60192876 20.4305926,9.32514933 C20.3624183,9.57826879 20.3611028,10.0765373 20.4279616,10.3260198 C20.5226009,10.6792727 20.6637473,10.9169156 20.9461949,11.1987441 C21.3288533,11.5807061 21.6465875,11.7275014 22.0891403,11.7268824 C22.6125582,11.7261085 23.0413369,11.5016981 23.310165,11.0879318 C23.4606748,10.8564021 23.5339564,10.6442182 23.5735764,10.3260198 C23.5992676,10.1197169 23.6176073,10.0543284 23.6499534,10.0543284 C23.7110858,10.0543284 23.8448809,10.3390975 23.8815604,10.5474896 C23.9894321,11.1598205 23.5060212,11.9026963 22.7773838,12.2443418 C22.4509827,12.3974052 22.2268818,12.4494839 21.8909627,12.450103 C21.2624588,12.4512637 20.61902,12.1673458 20.1315077,11.6735656 C19.3761732,10.9085582 19.1273872,9.69442053 19.5059443,8.62104233 C19.6971575,8.07897512 19.9296931,7.71914464 20.3723233,7.28007407 C20.930254,6.72663157 21.5619306,6.37910497 22.2186019,6.26434613 C22.4040113,6.23200008 22.5437648,6.17659393 22.577349,6.12219375 C22.587254,6.10617549 22.5316157,5.98058304 22.4536137,5.84315101 C22.2339237,5.45600437 21.9770898,4.82130983 21.8651168,4.38850727 C21.697815,3.74166362 21.7732633,2.65172548 22.0333472,1.96046404 C22.318658,1.2018021 22.9064585,0.595042787 23.5843327,0.359257093 C24.6146086,0.000974269067 26.089604,0.471230148 26.7239116,1.36005013 C26.8797608,1.57842467 27.0342171,1.90033753 27.1017723,2.14757589 C27.1776076,2.42499359 27.1696371,3.16655391 27.0876113,3.46664479 C26.8939993,4.17539477 26.3681051,4.76799301 25.7406845,4.98443298 C25.1117937,5.14593109 24.1897765,4.91076446 23.7985285,4.53282638 C23.3633271,4.09793449 23.2891169,3.5729689 23.4080544,2.98284691 C23.497896,2.53696664 23.7585989,2.13859948 24.0721545,1.9678928 C24.2725762,1.8588603 24.5596667,1.8190081 24.7467012,1.87425949 C24.904098,1.920844 25.1827538,2.08040754 25.050816,2.0484484 C24.8494657,1.99969717 24.5698813,1.9982269 24.4284253,2.04519832 C23.7179729,2.28121616 23.5006817,3.55578989 24.1445848,4.21919349 C24.3371135,4.41752586 24.8646327,4.5055876 25.2544878,4.48693832 C25.4703861,4.4766464 25.5315185,4.46109243 25.7176244,4.36908417 C26.1960055,4.13267941 26.4714112,3.65336973 26.5012037,3.00544272 C26.5186922,2.62409979 26.479846,2.42491621 26.3252349,2.10470577 C26.0095901,1.45058812 25.2842802,1.00548168 24.5319636,1.00416617 C23.9151446,1.00308281 23.4094473,1.35432379 23.0790223,2.01347133 C22.6378624,2.89323751 22.6669584,3.84613053 23.1651495,4.83895313 C23.3798097,5.2667258 23.5662251,5.53029195 23.8612087,5.82303146 C24.1684962,6.12799747 24.3761919,6.27030462 24.976451,6.58749712 C25.5612336,6.89640966 25.8825274,7.12577257 26.2675847,7.50912745 C26.6647137,7.90455407 26.9338515,8.30276647 27.2631931,8.98195617 C27.65181,9.78372039 27.7936528,10.2812151 27.8540889,11.0553536 C27.9523652,12.3133674 27.6670544,13.559619 26.9834539,14.8584135 C26.6501657,15.4917926 26.4909117,15.7422036 25.3492044,17.428377 C24.9324201,18.043958 24.7129622,18.4133839 24.687039,18.5430003 C24.6720267,18.6180617 24.6755863,18.6226273 24.7273555,18.5950016 C24.9207353,18.4914633 26.8650581,16.5318961 27.3367842,15.964989 C28.2255268,14.897105 28.6975625,13.6145608 28.9807839,11.4983707 C29.1209243,10.4509931 29.2687257,8.81364837 29.3550076,7.35196278 C29.5327561,4.34138109 29.8241027,3.23704973 30.6960532,2.26898966 C31.2596329,1.64327154 31.879083,1.22292763 32.5814876,0.98961819 C33.9056638,0.549928556 35.3648731,0.742766741 36.3740235,1.49105938 C37.0483381,1.99103029 37.6026318,2.80208046 37.809631,3.59169556 C37.8928176,3.90912021 37.8997821,3.97125868 37.9017167,4.42093071 C37.9040382,4.95611084 37.8685968,5.18965243 37.7157656,5.64830087 C37.396948,6.60529519 36.6597985,7.35335568 35.7313585,7.66226821 C35.3684327,7.78298553 35.1057951,7.81734354 34.6620816,7.80194434 C34.148027,7.78406889 33.9075209,7.72525789 33.4723195,7.51067511 C32.6913713,7.12577257 32.1508518,6.46267851 31.9525194,5.6463663 C31.8829522,5.35997219 31.8897618,4.80258317 31.9663709,4.51533785 C32.1697332,3.75265199 32.7214733,3.1096001 33.4078596,2.83504557 C33.8533529,2.65683275 34.3920927,2.64274907 34.8380503,2.79751487 C35.1972617,2.92217872 35.3802723,3.04065193 35.689417,3.34863587 C36.1130883,3.77068221 36.260348,4.10443465 36.260348,4.64263271 C36.260348,5.52077386 35.9017556,6.08373445 35.1880532,6.32609769 C34.9039032,6.42259416 34.4156171,6.42360014 34.1399018,6.32826441 C33.7745771,6.2020529 33.5280352,5.97477933 33.3971033,5.64350313 C33.3033153,5.40616978 33.3033153,4.92260404 33.3971033,4.68542546 C33.4847008,4.46387822 33.6542467,4.25587298 33.8079292,4.18150802 C34.018488,4.07959474 34.0396909,4.10714305 33.8767999,4.27080788 C33.6555622,4.49320634 33.5565121,4.75290335 33.5556609,5.05214302 C33.5510179,5.59761507 34.077299,5.94645718 34.5357927,5.97485671 C34.8930696,5.99056544 35.1831007,5.87789594 35.4654709,5.6137881 C35.9802219,5.1323117 35.951745,4.3123625 35.3993085,3.70947233 C35.0664846,3.346237 34.7503755,3.20029286 34.2872388,3.1960368 C33.5228506,3.18907234 32.8298093,3.70041853 32.5691063,4.46380083 C32.4829792,4.71583694 32.4613893,5.22741528 32.5253076,5.49988047 C32.6870379,6.18959425 33.2485282,6.81268136 33.8869371,7.01093635 C34.2876257,7.13536805 34.8904385,7.15293397 35.3093122,7.05241358 C36.1643932,6.8473489 36.8760837,6.07816288 37.0822318,5.13633561 C37.136245,4.88948416 37.1422809,4.31213035 37.0932201,4.07773755 C36.93474,3.31992682 36.5313429,2.69738139 35.9366553,2.29297836 C35.5827833,2.05239493 35.0119297,1.84725286 34.4906785,1.77350696 C34.1546045,1.72583909 33.5353092,1.75439338 33.2434983,1.83084769 C32.2969507,2.07885988 31.4362207,2.92357161 31.0853666,3.94912717 C30.9098622,4.46186626 30.8794507,4.68140155 30.8635872,5.54878647 C30.847569,6.42669546 30.8847901,7.26955 30.9689053,7.92993566 C30.9966858,8.14769114 31.024621,8.33108861 31.0309664,8.33743401 C31.0373118,8.3437794 31.1709521,8.31058214 31.3280394,8.2636881 C32.1503875,8.0179974 32.8739949,8.06109967 33.5707506,8.39709622 C34.4670767,8.8293571 35.0178882,9.59165604 35.0781694,10.4832618 C35.1203431,11.1075096 34.9127248,11.6503507 34.4603444,12.0989394 C34.0759061,12.4799728 33.6799378,12.6564831 33.2148666,12.6540843 C32.4474604,12.649983 31.7808841,12.1232376 31.6504165,11.4176603 C31.5690871,10.9778159 31.8060336,10.4548623 32.1663283,10.2791257 C32.3132785,10.2074691 32.6662219,10.1933081 32.8616137,10.2511905 C33.0136711,10.2962273 33.3311731,10.4623684 33.3084999,10.4849642 C33.3019998,10.4915418 33.2203608,10.4698746 33.1271144,10.4369094 C32.9307166,10.3675744 32.6707875,10.373765 32.5206646,10.45138 C32.1914004,10.6216224 32.0234021,11.0132573 32.1268631,11.3692186 C32.1873765,11.5773012 32.2705631,11.7087748 32.4408829,11.8655525 C32.6248994,12.0348663 32.7966894,12.1059038 33.0600234,12.1214578 C33.335197,12.1377856 33.5333746,12.0825342 33.7724104,11.9228933 C34.1211751,11.6900481 34.31293,11.3321522 34.3371508,10.8693251 C34.3823424,10.0070474 33.8075422,9.3483642 32.8877691,9.20845592 C32.3712382,9.12983489 31.6261183,9.35718585 31.2816096,9.69844444 C31.0608362,9.91720589 31.0421096,9.9936602 30.8827008,11.3268128 C30.8048536,11.9777577 30.6230812,13.057017 30.5159059,13.5042902 C30.4693214,13.6985986 30.3848966,13.9655697 30.3283297,14.0975849 C30.2716854,14.2296001 30.229976,14.3422696 30.235625,14.3479959 C30.2413513,14.3536449 30.5451566,14.241904 30.9107134,14.0996742 C31.2763476,13.9573671 31.706287,13.8099526 31.8661601,13.772035 C32.476479,13.6271742 32.6796865,13.6224539 35.988734,13.676235 C38.8641278,13.7229743 39.3855338,13.6940331 40.178012,13.4437768 C41.3399163,13.0768271 42.0640654,12.365833 42.3582752,11.303211 C42.4106634,11.1141646 42.4190982,11.0066023 42.4191756,10.5262093 C42.4191756,10.0145536 42.4131397,9.94576018 42.3445785,9.69202166 C42.1840863,9.09733408 41.9041924,8.6089706 41.4953785,8.20990699 C40.9365966,7.66443493 40.2059473,7.39908897 39.5158466,7.49094247 C38.5386553,7.62110051 37.703926,8.35979766 37.4594734,9.3108335 C37.378144,9.62725217 37.3778344,10.1116691 37.4589317,10.4260758 C37.6353647,11.111224 38.1424549,11.6713988 38.7939415,11.901226 C39.0354535,11.9863472 39.4962687,11.9667694 39.8205804,11.8575821 C40.7000371,11.5615925 41.2228359,10.7257798 41.0207118,9.93879572 C40.9551685,9.68343215 40.8478384,9.48440334 40.6748876,9.2976784 C40.3625703,8.96021158 40.0740094,8.83902996 39.5835566,8.83902996 C39.2354109,8.83902996 39.2150592,8.79701104 39.5433175,8.75584334 C40.3381173,8.6560194 41.0806836,9.15668676 41.2831172,9.92889071 C41.3444819,10.1628966 41.3436307,10.5912883 41.2811827,10.8550092 C41.2551046,10.9651251 41.1819004,11.1626063 41.1184464,11.2938477 C40.5178004,12.2879858 39.2002017,12.5346051 38.3277869,12.2390024 C37.7074082,12.0201636 37.3687033,11.7238644 37.1053693,11.1695707 C36.8996855,10.7366908 36.7981591,10.2467797 36.7969984,9.68258094 C36.795296,8.79112994 36.9856579,8.33426131 37.6191143,7.70947178 C38.2783392,7.05930066 38.914891,6.79217489 39.7919488,6.79751431 C40.8251652,6.80385971 41.64968,7.19773867 42.3294114,8.00971743 C42.7525411,8.51502776 43.0517808,9.06235701 43.1892128,9.58206056 C43.2721673,9.89577083 43.2764233,9.93910525 43.2785127,10.4975776 C43.2803699,11.0085369 43.2721673,11.1236827 43.2141301,11.3948324 C43.0251611,12.2776165 42.6921051,12.9044953 42.0950186,13.500808 C41.6892227,13.906217 41.3428568,14.1542292 40.8214508,14.413075 C39.9814595,14.830014 39.622635,14.8824796 37.2970467,14.9287546 C35.4210531,14.9660532 34.8046983,14.9847024 34.3301863,15.018364 C32.9025492,15.1196582 30.9279698,15.6518978 29.5328335,16.3114322 C29.2082896,16.4649599 28.5294868,16.8498625 28.5003909,16.8969886 C28.4924978,16.9096794 28.6621985,16.9410969 28.8774777,16.9669428 C29.4893443,17.0403792 29.9113906,17.2096156 30.3478302,17.5567552 C31.122433,18.1728005 31.4952638,19.1253066 31.2845502,19.9493571 C31.0384726,20.9113813 30.1200923,21.6059702 29.2558027,21.4837052 C28.8610726,21.4279122 28.4736938,21.2009481 28.2837961,20.9142445 C28.0450699,20.5537949 28.010944,19.9546965 28.2162409,19.7279646 C28.2416224,19.6997973 28.2714149,19.6768145 28.2824032,19.6768145 C28.2933142,19.6768145 28.3101063,19.7894066 28.3196244,19.9270708 C28.3344045,20.1408024 28.3526669,20.2083577 28.4453716,20.390517 C28.9198836,21.3232905 30.2703699,21.0439382 30.5258109,19.9601133 C30.719655,19.1377653 30.1594028,18.228671 29.3189472,18.0017843 C29.0693873,17.9344612 28.5831132,17.9411935 28.2680874,18.0163323 C27.8268501,18.121573 27.2720147,18.4201936 26.8189378,18.7962745 C26.2152738,19.2973288 25.4035272,20.2920086 25.0895074,20.9154826 C24.8328284,21.4252038 24.3214048,22.6576038 24.0846131,23.337103 C23.9318593,23.775245 23.9266746,23.7945907 23.9613421,23.7945907 C23.9776699,23.7945907 24.2068781,23.631545 24.4708311,23.432284 C25.6648493,22.5306959 26.2880912,22.2501828 27.3811246,22.1223463 C28.2030858,22.0262367 29.9325162,22.0407847 30.825747,22.1513649 C31.2740261,22.2068484 31.763473,22.3103867 32.254777,22.4536999 C34.1238062,22.9989398 35.0986759,23.1766109 36.2175553,23.1760692 C36.8524819,23.1757597 37.1344652,23.1341277 37.6362159,22.9665163 C38.4885112,22.6817473 39.1107471,22.2360992 39.5171621,21.6192801 C39.8461168,21.1199282 39.9611852,20.6868161 39.9611852,19.9485059 C39.9611852,19.4267904 39.9234223,19.1491405 39.8001513,18.7617617 C39.6464689,18.2788925 39.4236062,17.9194489 39.0357631,17.5290522 C37.8544357,16.3399091 36.4042028,16.162238 35.1022355,17.0469567 C34.4139146,17.5148137 33.9749215,18.1061738 33.7974825,18.8046319 C33.7076409,19.1584265 33.7077957,19.7275777 33.7978694,20.0628778 C34.0341968,20.9428761 34.7077375,21.6522452 35.521883,21.8782806 C36.5386943,22.1606508 37.6049533,21.6680313 38.0600421,20.7057749 C38.1918252,20.4271191 38.2432074,20.1513265 38.2271118,19.8093714 C38.2035874,19.3072338 38.0133028,18.9049201 37.6329659,18.5533696 C37.1165124,18.0759171 36.4306678,17.9770991 35.8289383,18.2932857 C35.3401106,18.5501195 35.0270967,19.0281911 35.0272515,19.5174831 C35.0276384,20.0060788 35.2754185,20.4003446 35.7160367,20.6126059 C35.8475876,20.6759051 35.9241193,20.69084 36.1677207,20.7008224 C36.4402632,20.7118882 36.4720676,20.7074 36.6167736,20.6365946 C37.0556894,20.4218571 37.2727485,19.8544857 37.0933749,19.3908847 C37.0156051,19.1896892 37.015992,19.1883737 37.1198399,19.3061504 C37.253248,19.4575114 37.3216545,19.63023 37.338137,19.8578905 C37.3748939,20.364439 37.1073038,20.9047264 36.7119546,21.1224045 C36.3023669,21.2914087 35.7528709,21.243973 35.3631707,21.041075 C34.8381277,20.7621097 34.5077801,20.0942953 34.5543646,19.405897 C34.5908893,18.867312 34.7431789,18.5307738 35.1023903,18.1952415 C35.3599206,17.9548129 35.6764166,17.7892135 36.0459974,17.7016934 C36.4064469,17.6161853 36.9445676,17.6328226 37.2692662,17.7394563 C38.0168624,17.9849922 38.5659715,18.6348538 38.73544,19.4743035 C38.8003643,19.7960616 38.7802447,20.3745761 38.6940402,20.6623631 C38.440766,21.508313 37.813268,22.1464898 36.9552464,22.4306398 C36.3946073,22.6163587 35.8362897,22.6389545 35.2881866,22.4981177 C34.9439101,22.409669 34.7376073,22.3177381 34.4470345,22.1233523 C33.9974399,21.8225649 33.5572086,21.3424814 33.3048629,20.8778745 C33.0832383,20.4697571 32.94333,19.888302 32.94333,19.3749438 C32.94333,18.8016139 33.0462493,18.3544182 33.2982854,17.8323931 C33.6022454,17.203038 34.0253751,16.7288356 34.6660281,16.2997474 C35.408904,15.8022528 35.8504508,15.6734102 36.8127845,15.6734102 C37.4621818,15.6734102 37.8993952,15.7778772 38.4921482,16.0746406 C39.2494172,16.4538168 39.9533695,17.1034462 40.4767874,17.9059843 C40.7145851,18.2706125 40.8035754,18.3714424 40.8518623,18.3313581 C40.8711307,18.3153398 40.9212748,18.1901343 40.9632937,18.0530892 C41.2563427,17.0974877 41.4608657,16.7200913 41.97848,16.1794944 C42.6802655,15.4465236 43.4811011,15.0663414 44.4103149,15.0248642 C45.2311154,14.988262 45.9004001,15.2382862 46.4940817,15.8032587 C47.0784773,16.3593323 47.2756489,16.8161235 47.2775835,17.6179651 C47.2789764,18.2037537 47.198653,18.5395181 46.9599267,18.9456235 C46.7971905,19.2223448 46.4871946,19.5444124 46.2494743,19.6836242 C45.4441505,20.155273 44.4285773,20.0679077 43.8359017,19.4759285 C43.6177593,19.2580957 43.4662436,19.0142621 43.3582171,18.7073616 C43.2580062,18.2757198 43.198963,17.8677571 43.3873904,17.4661399 C43.6488672,16.9185011 44.2022323,16.6132255 44.8616894,16.6527682 C45.2599018,16.6766795 45.5400279,16.8140342 45.6809422,17.0545402 C45.7709385,17.2081453 45.8394997,17.497093 45.838339,17.7180212 L45.8374878,17.8895791 L45.7409913,17.6370787 C45.6151667,17.3078918 45.5290395,17.182222 45.3464933,17.0613499 C44.8005569,16.6999718 44.0021202,16.8976077 43.7146427,17.4652887 C43.4298736,18.0277849 43.528382,18.5882693 43.9956974,19.0636324 C44.332313,19.405897 44.7037509,19.5514542 45.182751,19.5285489 C45.3910658,19.5185665 45.461639,19.5012327 45.641709,19.4156472 C46.2618556,19.1209732 46.6423473,18.4725045 46.6432759,17.7087353 C46.6438176,17.2230802 46.5198502,16.8916492 46.2285809,16.60038 C45.8844592,16.2562582 45.5235453,16.0365682 44.7558296,16.0597057 C44.1837378,16.0768847 43.8911531,16.2426388 43.5003694,16.4356318 C42.8509721,16.7563839 42.3684124,17.4318592 42.0112129,18.5204045 C41.8181426,19.1086693 41.5999228,19.9953225 41.5964406,20.2058814 L41.5936548,20.3774393 L41.6794724,20.3751178 C41.7265986,20.3738797 41.8746321,20.3481112 42.0082724,20.3179319 C42.3535549,20.2399299 43.642754,20.2390013 44.1083669,20.3163842 C45.3711784,20.5262466 46.6756219,21.4427697 47.3802706,22.6154301 C47.5602632,22.9149793 47.76231,23.3923544 47.8539313,23.7346964 C48.0543531,24.4837628 48.0169771,25.4014467 47.7531788,26.2076991 C47.1251392,28.1272593 45.2327404,29.2265607 43.2665183,28.8140325 C42.8845563,28.7339412 42.1780505,28.34486 41.7632007,27.9861903 C41.3314042,27.6128178 40.9256082,26.8438639 40.8040397,26.168079 C40.7446096,25.8379636 40.7591576,25.2319007 40.8332904,24.9527806 C40.9838002,24.3854866 41.3455652,23.8485266 41.8186843,23.4899343 C42.0343504,23.3265016 42.4977192,23.1030972 42.7660831,23.0332204 C43.0756147,22.9525874 43.643373,22.9590102 43.9241956,23.0462981 C44.2509836,23.1477471 44.8106941,23.4599871 44.8106941,23.5406975 C44.8106941,23.5847283 44.7529664,23.5686327 44.4973707,23.4535643 C44.1549514,23.2993402 43.9627323,23.252214 43.5947766,23.2320945 C43.3572885,23.2190941 43.2200112,23.2266777 43.0371554,23.2630476 C42.2359329,23.4222242 41.5134087,24.1031938 41.3050166,24.8955946 C41.2256991,25.1968463 41.2328183,25.9531093 41.3177848,26.2682125 C41.4980095,26.9361817 41.9674916,27.5495959 42.5487919,27.8764613 C43.0495367,28.1580577 43.5123638,28.26887 44.0957535,28.2467385 C44.9038631,28.2161722 45.5774812,27.9310936 46.1632698,27.3718474 C46.4471102,27.1009299 46.60915,26.8919187 46.7696422,26.5896611 C47.2569997,25.6720546 47.2843932,24.5314307 46.8436202,23.5079645 C46.5580773,22.8450252 45.9605266,22.1972529 45.2824976,21.8155231 C44.942245,21.6240004 44.5126925,21.4532164 44.2102028,21.3891433 C43.9653633,21.3373742 43.8149309,21.3254572 43.3952061,21.3245286 C42.8686928,21.3234452 42.5994003,21.3529281 42.2142657,21.453758 C41.7315511,21.5802791 41.5273377,21.7218898 40.735788,22.4795458 C39.9507385,23.2310111 39.6347067,23.4794102 39.1630579,23.7157376 C38.8122039,23.8915515 38.3551805,24.0340908 37.7681538,24.1507069 C36.9892949,24.3053953 36.7528902,24.3224195 35.4026359,24.3205623 C33.9722131,24.3186277 33.9332121,24.3143717 32.8263271,24.0370314 C31.1079624,23.6063955 29.8948307,23.4121645 28.9256873,23.4125514 C28.1996809,23.4128609 27.7796465,23.5023155 26.9668939,23.8294904 C26.0013875,24.2181847 25.3690918,24.6486658 24.5198145,25.4953895 C23.6539773,26.3587505 23.1968765,27.0367795 22.8666063,27.9478083 C22.7291742,28.3269072 22.7183406,28.369932 22.7595857,28.369932 C22.7732825,28.369932 23.0356105,28.2099042 23.3426659,28.0143576 C24.2250631,27.4521709 24.5766136,27.2861072 25.079525,27.1939441 C25.4043011,27.1344367 26.545931,27.1425619 26.9641082,27.2074088 C27.6478635,27.3134233 28.2501346,27.5133034 28.7119557,27.7873936 C29.1139599,28.0260424 29.3827107,28.2680188 29.8528118,28.8149611 C30.6880054,29.7865034 30.9802033,30.020045 31.4421018,30.0850466 C31.8470465,30.1420004 32.3374993,30.1063269 32.671716,29.9957468 C33.2292598,29.8111112 33.8051434,29.2374717 34.0126069,28.6601953 C34.2258742,28.0665137 34.1498068,27.2180102 33.8367156,26.6973781 C33.6010073,26.3055111 33.1774907,26.0063488 32.7003477,25.8947626 C32.322487,25.8063914 31.8901488,25.8824588 31.5166215,26.103 C31.0585147,26.3734532 30.8251279,26.757195 30.8248184,27.2404513 C30.8244315,27.5937816 30.9360176,27.8494547 31.1964111,28.093056 C31.4692632,28.3482648 31.8048728,28.4235584 32.2388361,28.3270619 C32.4951283,28.2700307 32.5543262,28.2906146 32.4762468,28.4097069 C32.3998699,28.5263229 32.1851324,28.6547785 31.9834725,28.7045357 C31.3678142,28.8565157 30.5720085,28.3678427 30.3402467,27.6956175 C30.1984038,27.2839404 30.211172,26.8745849 30.3800215,26.4244486 C30.5932114,25.8562259 31.0322046,25.4054706 31.5914508,25.1805959 C32.1660962,24.9495305 32.9183353,24.9821861 33.529815,25.2646337 C34.2801196,25.6113091 34.8708607,26.2696054 35.1102834,27.0259459 C35.2310007,27.4070566 35.2453939,27.5162439 35.2443879,28.0411321 C35.2433046,28.6196467 35.1933926,28.8981477 35.0147155,29.3220512 C34.8225737,29.7777591 34.3874497,30.335922 33.9223011,30.7233008 C33.5104693,31.0662618 33.1709131,31.2587904 32.6288459,31.4568907 C32.4480021,31.523053 32.2893671,31.5874356 32.2763668,31.5999716 C32.249128,31.6262818 32.918258,32.140259 33.3368994,32.414504 C34.1262824,32.9318087 34.9898756,33.2778651 35.8458852,33.4198627 C36.3978574,33.5114066 37.2688793,33.4782868 37.7931485,33.3455751 C38.3307275,33.209536 39.0960443,32.7453159 39.5804613,32.2614407 C39.920327,31.9219619 40.0796584,31.6785927 40.2184059,31.2867257 C40.2953245,31.0693571 40.3045331,31.0074508 40.3056164,30.7005502 C40.3066224,30.4112929 40.2961757,30.3263265 40.2386802,30.1600307 C40.1452017,29.8890357 39.9163805,29.5631764 39.6805948,29.3650761 C39.4422554,29.164964 39.314032,29.1018195 39.0284117,29.0438597 C38.4643677,28.929333 38.009898,29.0466455 37.6592761,29.3972674 C37.1672756,29.8893453 37.1290484,30.6442155 37.5736906,31.088935 C37.7549213,31.2700883 37.9040382,31.3336197 38.2303618,31.368442 C38.3414063,31.3802816 38.4414624,31.3992404 38.4527603,31.4105383 C38.4988805,31.4566585 38.3725916,31.5215054 38.1784379,31.55153 C37.6167155,31.6385083 37.1076134,31.4000142 36.8787921,30.9427587 C36.7432173,30.671609 36.7079307,30.4785387 36.7251097,30.0999815 C36.7733966,29.0355024 37.5227726,28.2872097 38.6562773,28.1715997 C39.3808134,28.097699 40.0175973,28.3463303 40.566242,28.9173387 C40.8109268,29.171851 40.9778417,29.4142143 41.1251013,29.7283888 C41.3061773,30.114839 41.3363567,30.2659678 41.3360471,30.7862905 C41.3357376,31.3360186 41.2904686,31.5308687 41.0502721,32.0159047 C40.5780816,32.9694942 39.5156144,33.8957675 38.1613363,34.5345633 C36.8530236,35.151692 35.4142434,35.2542243 33.8075422,34.8447914 C33.3432448,34.7264729 33.0735654,34.6214643 32.7003477,34.4133817 C31.8555586,33.9425842 30.9394225,33.1145098 29.7146059,31.7147305 C28.9115262,30.7969693 28.2210386,30.1052436 27.9529069,29.9498587 C27.485282,29.6788638 26.924875,29.5015796 26.5443059,29.5042106 C26.4140705,29.5052166 26.3006272,29.5127227 26.2922698,29.5212348 C26.2838351,29.5295922 26.4118264,29.7355081 26.576652,29.9787225 C27.0815754,30.7239198 27.1959473,31.0084568 27.217305,31.5727329 C27.2449307,32.302531 27.0315087,32.9480591 26.6154208,33.392856 C26.201964,33.8347898 25.7235055,34.031884 25.0652092,34.031265 C24.4942008,34.0306459 24.1204414,33.8994819 23.8048739,33.5887122 C23.6268159,33.4133625 23.5649869,33.2972882 23.635328,33.2702815 C23.6563761,33.2622337 23.7743851,33.2998418 23.8975786,33.3539324 C24.1803357,33.4782094 24.3634237,33.5172877 24.6591811,33.5168234 C25.4586239,33.5153532 26.1371945,33.0202574 26.324229,32.3018345 C26.3782422,32.0942936 26.3845876,31.6404429 26.3361459,31.4439677 C26.2430543,31.0665713 26.0143105,30.7038777 25.6578074,30.3685776 C25.3695561,30.0973505 25.1329966,29.9670377 24.9255331,29.9652579 C24.7408201,29.9636329 24.6227338,30.0003897 24.3067794,30.1581735 C23.5037771,30.5593264 22.8333316,31.3068452 22.10748,32.6104375 C21.2450476,34.1593337 20.8577462,35.4079067 20.691373,37.1757191 C20.5761498,38.400613 20.7034447,39.6640436 21.0492689,40.7289097 C21.3062575,41.5198403 21.6292537,42.027859 21.9750005,42.1848689 C22.1827736,42.279276 22.2748592,42.2510313 22.5938315,41.9950487 C23.0550336,41.625081 23.3704463,41.5215427 23.7585989,41.6127771 C23.9782116,41.6643915 24.4398006,41.9018796 24.8364653,42.167303 C25.2681072,42.4560186 25.3940091,42.5248894 25.4901961,42.5248894 C25.5285006,42.5248894 25.6765341,42.4798525 25.8190734,42.4248333 C26.3369198,42.2247985 26.5658958,42.3008659 27.4320426,42.9608646 C27.788623,43.232556 27.8533151,43.3001886 27.8533151,43.4012507 C27.8533151,43.5000687 27.7124782,43.5331112 27.0812659,43.5819398 C25.9424217,43.6701563 19.9566997,43.9630505 18.3023307,44.0115696 C17.2307323,44.0429871 15.4951887,44.042368 14.713544,44.0104089 L14.7133892,44.0104089 Z" id="Fill-1"></path>
        </g>
    </g>
</svg>