<?xml version="1.0" encoding="UTF-8"?>
<svg width="30px" height="30px" viewBox="0 0 30 30" version="1.1" xmlns="http://www.w3.org/2000/svg" xmlns:xlink="http://www.w3.org/1999/xlink">
    <!-- Generator: Sketch 45.1 (43504) - http://www.bohemiancoding.com/sketch -->
    <title>icons/nilfgaard</title>
    <desc>Created with Sketch.</desc>
    <defs></defs>
    <g id="symbols" stroke="none" stroke-width="1" fill="none" fill-rule="evenodd">
        <g id="icons/nilfgaard" fill="#4A4A4A">
            <path d="M19.9157801,11.9174967 C19.7846808,11.5241987 18.9978993,10.7374172 18.2113033,10.2130199 C18.9978993,9.95082119 19.9157801,8.63964238 21.3580583,6.80388079 C22.6642305,5.14149669 25.2915947,5.49270199 25.2915947,5.49270199 C23.0627205,5.75490066 22.2759391,7.45937748 22.013555,8.24615894 C21.7513563,9.0329404 21.2269589,10.8685166 19.9157801,11.9174967 Z M13.8856742,9.34437086 C14.2565351,8.60264901 13.9783894,7.02649007 13.7002437,4.70860927 C13.4484291,2.60953642 15.5545483,1 15.5545483,1 C14.1638199,2.7615894 14.8128265,4.52317881 15.1836874,5.26490066 C15.5545483,6.00662252 16.4817007,7.67549669 16.2962702,9.34437086 C15.9254093,9.1589404 14.8128265,9.1589404 13.8856742,9.34437086 Z M16.1142887,20.6556291 C15.7434278,21.397351 16.0215735,22.9735099 16.2997192,25.2913907 C16.5515338,27.3904636 14.4454146,29 14.4454146,29 C15.836143,27.2384106 15.1871364,25.4768212 14.8162755,24.7350993 C14.4454146,23.9933775 13.5182623,22.3245033 13.7036927,20.6556291 C14.0745536,20.8410596 15.1871364,20.8410596 16.1142887,20.6556291 Z M9.34444503,16.1142146 C8.60272318,15.7433536 7.02656424,16.0214993 4.70868344,16.299645 C2.60942517,16.5514596 1.00007417,14.4453404 1.00007417,14.4453404 C2.76166358,15.8360689 4.52325298,15.1870623 5.26497483,14.8162013 C6.00669669,14.4453404 7.67557086,13.5181881 9.34444503,13.7036185 C9.15901457,14.0744795 9.15901457,15.1870623 9.34444503,16.1142146 Z M6.80382517,8.64194172 C5.14144106,7.33576954 5.49264636,4.7084053 5.49264636,4.7084053 C5.75503046,6.9374649 7.45950728,7.72406093 8.24610331,7.9862596 C9.03288477,8.24845828 10.8686464,8.77304106 11.9174411,10.0842199 C11.524143,10.2153192 10.737547,11.0021007 10.2129642,11.7886967 C9.95076556,11.0021007 8.63940132,10.0842199 6.80382517,8.64194172 Z M23.1961377,21.3580583 C24.8585219,22.6644159 24.5073166,25.2917801 24.5073166,25.2917801 C24.2451179,23.0625351 22.5406411,22.2759391 21.7538596,22.0137404 C20.9670781,21.7513563 19.131502,21.2269589 18.0825219,19.9157801 C18.4758199,19.7846808 19.2626013,18.9978993 19.7869987,18.2113033 C20.0491974,18.9978993 21.3605616,19.9157801 23.1961377,21.3580583 Z M10.0841642,18.0825033 C10.2152636,18.4758013 11.002045,19.2625828 11.7886411,19.7869801 C11.002045,20.0491788 10.0841642,21.3603576 8.64188609,23.1961192 C7.33571391,24.8585033 4.70834967,24.507298 4.70834967,24.507298 C6.93722384,24.2450993 7.7240053,22.5406225 7.9863894,21.7536556 C8.24858808,20.9670596 8.77298543,19.1314834 10.0841642,18.0825033 Z M25.2914649,13.700355 C27.3905377,13.4485404 29.0000742,15.5546596 29.0000742,15.5546596 C27.2384848,14.1639311 25.4768954,14.8129377 24.7351735,15.1837987 C23.9934517,15.5546596 22.3245775,16.4818119 20.6557033,16.2963815 C20.8411338,15.9255205 20.8411338,14.8129377 20.6557033,13.8857854 C21.3974252,14.2566464 22.9735841,13.9785007 25.2914649,13.700355 Z M15.0000742,18.1456954 C13.1632191,18.1456954 11.6689483,16.651264 11.6689483,14.8145695 C11.6689483,12.977875 13.1632191,11.4834437 15.0000742,11.4834437 C16.8367687,11.4834437 18.3312,12.977875 18.3312,14.8145695 C18.3312,16.651264 16.8367687,18.1456954 15.0000742,18.1456954 M15.0000742,10.0397351 C12.3628821,10.0397351 10.2252397,12.1775629 10.2252397,14.8145695 C10.2252397,17.4515762 12.3628821,19.589404 15.0000742,19.589404 C17.6370808,19.589404 19.7749086,17.4515762 19.7749086,14.8145695 C19.7749086,12.1775629 17.6370808,10.0397351 15.0000742,10.0397351" id="Fill-18"></path>
        </g>
    </g>
</svg>