<?xml version="1.0" encoding="UTF-8"?>
<svg width="30px" height="30px" viewBox="0 0 30 30" version="1.1" xmlns="http://www.w3.org/2000/svg" xmlns:xlink="http://www.w3.org/1999/xlink">
    <!-- Generator: Sketch 45.1 (43504) - http://www.bohemiancoding.com/sketch -->
    <title>icons/northanrealms</title>
    <desc>Created with Sketch.</desc>
    <defs></defs>
    <g id="symbols" stroke="none" stroke-width="1" fill="none" fill-rule="evenodd">
        <g id="icons/northanrealms" fill="#4A90E2">
            <path d="M21.9438062,14.1879375 L21.9438062,14.1879375 C21.8988239,14.1810625 21.8562841,14.1718958 21.8096735,14.1666875 C21.7077,14.1550208 21.6075584,14.1489792 21.5084345,14.1452292 C21.4838062,14.1443958 21.4591779,14.1435625 21.4347531,14.1431458 C21.4103283,14.1427292 21.3854965,14.1410625 21.3612752,14.1410625 C21.3313549,14.1410625 21.3026558,14.1439792 21.2731425,14.1446042 L21.2727354,14.1452292 C17.9678593,14.2227292 16.3140982,18.5416875 16.3140982,18.5416875 L16.3140982,16.2500208 C16.3140982,14.7916875 18.3494965,13.5416875 18.3494965,13.5416875 L16.5960009,5.20835417 L16.4645142,4.58335417 L15.4999389,2.08333333e-05 L14.5355673,4.58335417 L14.4040805,5.20835417 L12.6503814,13.5416875 C12.6503814,13.5416875 14.6857796,14.7916875 14.6857796,16.2500208 L14.6857796,18.5416875 C14.6857796,18.5416875 13.0963372,14.3881458 9.91887699,14.1533542 L9.91826637,14.1523125 C9.9127708,14.1518958 9.90707168,14.1521042 9.90137257,14.1516875 C9.85333717,14.1483542 9.80428407,14.1473125 9.75543451,14.1456458 C9.71655841,14.1443958 9.67829292,14.1410625 9.63860265,14.1410625 C9.61438142,14.1410625 9.58954956,14.1425208 9.56512478,14.1431458 C9.5407,14.1435625 9.51647876,14.1441875 9.49205398,14.1450208 C9.40412478,14.1487708 9.31538142,14.1541875 9.22521327,14.1637708 L9.22541681,14.1641875 C9.2136115,14.1654375 9.20221327,14.1654375 9.19020442,14.1666875 C5.52648761,14.5833542 6.54418673,19.5833542 8.78312478,21.0416875 C8.17250531,18.7500208 8.57958496,16.8750208 10.2079035,17.0833542 C10.4405496,17.1131458 10.6817442,17.1846042 10.9263991,17.2823125 C11.166169,17.3781458 11.408992,17.5027292 11.6510009,17.6475208 C11.6607708,17.6533542 11.6703372,17.6591875 11.6801071,17.6648125 C11.7584699,17.7125208 11.8370363,17.7618958 11.9151956,17.8135625 C13.0597,18.5698125 14.1437531,19.7229375 14.6857796,20.4166875 L14.6857796,21.8750208 L13.4645407,22.9166875 L15.4999389,30.0000208 L17.5353372,22.9166875 L17.0236381,22.4800208 L16.9277708,22.3985625 L16.3140982,21.8750208 L16.3140982,20.4166875 C16.916169,19.6464792 18.1862575,18.3081458 19.4655053,17.5779375 C19.5235142,17.5450208 19.581523,17.5143958 19.6395319,17.4841875 C19.6698593,17.4683542 19.6999832,17.4525208 19.7303106,17.4375208 C19.9450451,17.3304375 20.1587619,17.2425208 20.368815,17.1793958 C20.5119035,17.1364792 20.6537708,17.1010625 20.7919743,17.0833542 C22.4202929,16.8750208 22.8273726,18.7500208 22.2167531,21.0416875 C24.4273991,19.6018958 25.4440805,14.7129375 21.9438062,14.1879375" id="Fill-1"></path>
        </g>
    </g>
</svg>