<?xml version="1.0" encoding="UTF-8"?>
<svg width="30px" height="30px" viewBox="0 0 30 30" version="1.1" xmlns="http://www.w3.org/2000/svg" xmlns:xlink="http://www.w3.org/1999/xlink">
    <!-- Generator: Sketch 45.1 (43504) - http://www.bohemiancoding.com/sketch -->
    <title>icons/url</title>
    <desc>Created with Sketch.</desc>
    <defs></defs>
    <g id="symbols" stroke="none" stroke-width="1" fill="none" fill-rule="evenodd">
        <g id="icons/url">
            <g id="Page-1">
                <circle id="Oval-Copy-2" stroke="#333333" cx="15" cy="15" r="14.5"></circle>
                <path d="M10.1773333,17.6367333 C10.492,17.6407333 10.8066667,17.6407333 11.1213333,17.6407333 C11.2826667,17.9994 11.48,18.3340667 11.712,18.6447333 L10.22,18.6447333 C8.588,18.6420667 7.312,17.5740667 7.044,15.9887333 C6.75866667,14.2980667 7.896,12.6927333 9.57733333,12.4074 C9.908,12.3514 10.2666667,12.3487333 10.752,12.3460667 L11.0133333,12.3434 C11.5493333,12.3380667 12.084,12.3327333 12.62,12.3327333 C13.0693333,12.3327333 13.5173333,12.3367333 13.9666667,12.3474 C15.2746667,12.3767333 16.2173333,12.9607333 16.852,14.1340667 C16.9986667,14.4060667 17.0893333,14.7234 17.1253333,15.1087333 C17.136,15.2074 17.1213333,15.2380667 17.0373333,15.2900667 C16.816,15.4287333 16.5906667,15.4514 16.3253333,15.3594 C16.288,15.3460667 16.2133333,15.3207333 16.088,15.0060667 C16,14.7860667 15.9,14.5354 15.74,14.2994 C15.316,13.6754 14.692,13.3460667 13.9346667,13.3460667 L13.9266667,13.3460667 L10.1373333,13.3487333 C9.068,13.3540667 8.17866667,14.1287333 8.02133333,15.1914 C7.86533333,16.2420667 8.524,17.2580667 9.55066667,17.5540667 C9.73466667,17.6060667 9.94,17.6340667 10.1773333,17.6367333 Z M23.2638667,14.9987333 C23.4078667,15.7760667 23.2092,16.6187333 22.7198667,17.3107333 C22.2345333,17.9974 21.5145333,18.4600667 20.7438667,18.5814 C20.4878667,18.6214 20.2252,18.6400667 19.9665333,18.6414 L19.0092,18.6494 C18.0065333,18.6587333 17.0025333,18.6667333 16.0012,18.6360667 C14.6038667,18.5920667 13.6452,17.9387333 13.0692,16.6374 C12.9692,16.4094 12.9225333,16.1107333 12.8892,15.8480667 C12.8692,15.6907333 13.0598667,15.6294 13.1758667,15.6067333 C13.2772,15.5854 13.3652,15.5760667 13.4398667,15.5760667 C13.7332,15.5760667 13.8398667,15.7254 13.9278667,16.0014 C14.2025333,16.8707333 14.7958667,17.4240667 15.6438667,17.6040667 C15.7905333,17.6347333 15.9278667,17.6387333 16.0545333,17.6387333 L20.1385333,17.6387333 C21.2638667,17.6374 22.1905333,16.8094 22.2932,15.7147333 C22.3998667,14.5814 21.6638667,13.6000667 20.5425333,13.3827333 C20.3985333,13.3547333 20.2492,13.3494 20.0892,13.3480667 L18.8878667,13.3480667 C18.7265333,12.9880667 18.5292,12.6534 18.2958667,12.3414 L20.0745333,12.3427333 C21.7132,12.3440667 22.9652,13.3880667 23.2638667,14.9987333 Z" id="Fill-4" fill="#000000"></path>
            </g>
        </g>
    </g>
</svg>