<?xml version="1.0" encoding="UTF-8"?>
<svg width="30px" height="30px" viewBox="0 0 30 30" version="1.1" xmlns="http://www.w3.org/2000/svg" xmlns:xlink="http://www.w3.org/1999/xlink">
    <!-- Generator: Sketch 45.1 (43504) - http://www.bohemiancoding.com/sketch -->
    <title>icons/wildicon</title>
    <desc>Created with Sketch.</desc>
    <defs></defs>
    <g id="symbols" stroke="none" stroke-width="1" fill="none" fill-rule="evenodd">
        <g id="icons/wildicon" fill="#9B9B9B">
            <path d="M16.8487036,15.1894602 C17.7709243,14.0055456 18.8944406,12.4170018 20.5082551,12.4170018 L20.565768,12.4170018 C22.121782,12.4170018 23.0440027,13.7455916 23.0440027,15.3338471 C23.0440027,16.4601222 22.2370955,18.019558 20.7385946,18.019558 C19.4422518,18.019558 18.5487875,17.5863974 16.8487036,15.1894602 M7.19572344,15.3047391 C7.19572344,13.4277099 8.31923969,12.4170018 9.76022763,12.4170018 C11.5756251,12.4170018 12.3247318,13.7164836 13.4772921,15.4494142 C12.7926,16.357524 12.0230762,17.2497829 11.1106326,17.7059993 L9.76425354,16.0869067 C9.76425354,16.0869067 8.94411832,17.0736944 8.54296522,17.680638 C7.72771859,17.2079943 7.1755939,16.297579 7.19572344,15.3047391 M26.7305854,9.74656535 C26.7305854,10.495302 25.8678905,11.4757494 25.0471802,11.5316596 C24.0596821,10.2143096 22.5191967,9.4595208 20.8539081,9.44251716 C20.377413,9.43329484 19.9406019,9.48459397 19.5331223,9.57422334 C18.6965959,8.3563014 17.5328206,7.44098667 15.2279875,7.44098667 C16.6485583,9.06814882 16.7791128,10.1215101 16.6324547,11.208014 C16.1108119,11.7086128 15.6938427,12.2241978 15.3504902,12.6193164 C13.7654322,10.4532252 12.1519053,9.44251716 9.76022763,9.44251716 C9.75706442,9.44251716 9.75447633,9.44309355 9.75131312,9.44309355 C8.62549636,8.28540486 9.76425354,6 9.76425354,6 C9.76425354,6 6.70858843,6.92741902 6.32095088,10.5509241 C5.19628437,11.3962069 4.42100928,12.6870427 4.19009463,14.2911491 L2,15.510512 L4.27751437,16.7785803 C4.87766241,19.4516106 7.08414825,21.0516822 9.44333106,21.0516822 C9.93391686,21.0516822 10.388557,21.0003831 10.815591,20.9049897 C11.5738997,21.4920477 12.5240143,22.5583778 11.7772082,23.8682347 C13.4470978,23.3105729 14.0371811,21.4021301 13.8125929,19.1896392 C14.260619,18.7553258 14.6905286,18.2573208 15.1198631,17.7019646 C17.1368436,20.7340887 19.1828682,21.0516822 20.7385946,21.0516822 C20.8168122,21.0516822 20.8944548,21.0439008 20.9726724,21.0404425 C21.6291832,21.7672762 23.3977076,23.3275765 25.8678905,22.4272481 C24.8559495,22.1736344 24.067734,21.2505383 24.0881511,19.8550868 C25.312315,18.8524483 26.1560306,17.2414252 26.1560306,15.1027128 L26.1560306,15.0450733 C26.1560306,14.4920227 26.0858647,13.9767258 25.9662377,13.4942835 C26.3958598,12.7337307 27.5090237,11.3065775 26.7305854,9.74656535" id="Fill-1"></path>
        </g>
    </g>
</svg>